<svg width="1200" height="473" viewBox="0 0 1200 473" fill="none" xmlns="http://www.w3.org/2000/svg">
<rect y="0.516602" width="1200" height="472" rx="30" fill="white"/>
<g clip-path="url(#clip0_1250_381)">
<path d="M186.908 331.254C135.883 330.033 96.5648 299.156 87.5658 243.272C83.343 217.068 97.0536 177.556 113.532 159.188C132.791 137.721 155.612 123.204 186.908 123.204" fill="#FFC20C"/>
<path d="M186.908 331.254C135.883 330.033 96.5648 299.156 87.5658 243.272C83.343 217.068 97.0536 177.556 113.532 159.188C132.791 137.721 155.612 123.204 186.908 123.204" stroke="#2E2310" stroke-width="8" stroke-miterlimit="10"/>
<path d="M186.908 331.254C237.934 330.033 277.252 299.156 286.251 243.272C290.474 217.068 276.763 177.556 260.285 159.188C241.026 137.721 218.205 123.204 186.908 123.204" fill="#FFC20C"/>
<path d="M186.908 331.254C237.934 330.033 277.252 299.156 286.251 243.272C290.474 217.068 276.763 177.556 260.285 159.188C241.026 137.721 218.205 123.204 186.908 123.204" stroke="#2E2310" stroke-width="8" stroke-miterlimit="10"/>
<path d="M186.779 341.168C167.75 341.168 148.498 336.877 131.183 327.738C102.33 312.505 91.7943 290.879 85.2865 271.73C78.3017 251.15 79.3971 220.977 79.4501 219.703C79.5267 217.754 80.6692 215.999 82.4243 215.13C84.1793 214.262 86.27 214.42 87.8779 215.541C100.399 224.288 114.392 233.909 120.234 237.707L149.481 214.614C151.354 213.135 153.992 213.076 155.93 214.461L187.709 237.22L218.01 214.802C219.924 213.393 222.533 213.399 224.436 214.831L254.171 237.249L285.032 215.383C286.557 214.303 288.536 214.091 290.256 214.831C291.97 215.565 293.177 217.144 293.442 218.987C293.678 220.648 299.002 260.078 283.477 289.171C265.897 322.108 226.862 341.163 186.791 341.163H186.779V341.168Z" fill="white" stroke="#2F2004" stroke-width="8" stroke-miterlimit="10"/>
<path d="M223.757 186.133C225.144 183.25 222.203 178.97 217.189 176.572C212.174 174.174 206.984 174.566 205.597 177.449C204.21 180.331 207.15 184.611 212.165 187.009C217.18 189.407 222.37 189.015 223.757 186.133Z" fill="#2F2004"/>
<path d="M161.645 187.027C166.66 184.629 169.601 180.348 168.214 177.466C166.826 174.584 161.636 174.192 156.622 176.59C151.607 178.988 148.666 183.268 150.054 186.15C151.441 189.032 156.631 189.425 161.645 187.027Z" fill="#2F2004"/>
<path d="M186.903 197.555C190.627 197.555 193.646 195.889 193.646 193.834C193.646 191.778 190.627 190.112 186.903 190.112C183.178 190.112 180.159 191.778 180.159 193.834C180.159 195.889 183.178 197.555 186.903 197.555Z" fill="#F15A28"/>
<path d="M186.926 201.277C190.651 201.277 193.67 199.611 193.67 197.555C193.67 195.5 190.651 193.834 186.926 193.834C183.202 193.834 180.183 195.5 180.183 197.555C180.183 199.611 183.202 201.277 186.926 201.277Z" fill="#F15A28"/>
<path d="M189.188 150.13C188.528 149.303 177.585 135.044 183.758 118.009C188.027 106.227 198.787 97.798 211.479 96.2776" stroke="#2E2310" stroke-width="6" stroke-miterlimit="10" stroke-linecap="round"/>
<path d="M139.169 199.481C145.385 199.481 150.424 196.953 150.424 193.834C150.424 190.715 145.385 188.187 139.169 188.187C132.953 188.187 127.914 190.715 127.914 193.834C127.914 196.953 132.953 199.481 139.169 199.481Z" fill="#F47A35"/>
<path d="M234.684 199.481C240.899 199.481 245.938 196.952 245.938 193.834C245.938 190.715 240.899 188.187 234.684 188.187C228.468 188.187 223.429 190.715 223.429 193.834C223.429 196.952 228.468 199.481 234.684 199.481Z" fill="#F47A35"/>
<path d="M323.13 272.288C320.486 271.144 318.442 269.547 317.005 267.504C315.568 265.461 314.85 263.101 314.85 260.425C314.85 258.441 315.368 256.01 316.405 253.146L336.652 201.036C338.531 196.258 341.264 192.583 344.851 190.001C348.437 187.424 352.53 186.132 357.13 186.132C361.73 186.132 365.882 187.424 369.468 190.001C373.055 192.578 375.788 196.258 377.666 201.036L397.914 253.146C398.951 256.163 399.469 258.593 399.469 260.425C399.469 263.101 398.75 265.461 397.313 267.504C395.876 269.547 393.833 271.144 391.188 272.288C389.351 273.092 387.466 273.492 385.552 273.492C382.831 273.492 380.311 272.635 377.99 270.915C375.67 269.195 373.956 266.806 372.843 263.747L371.518 259.849H342.931L341.494 263.747C340.457 266.729 338.779 269.101 336.464 270.856C334.144 272.611 331.582 273.492 328.784 273.492C326.864 273.492 324.986 273.092 323.148 272.288H323.13ZM350.793 236.228H363.502L357.118 213.469L350.793 236.228Z" fill="#FFC20C"/>
<path d="M414.063 272.981C410.459 272.981 407.373 271.748 404.805 269.283C402.237 266.817 400.953 263.788 400.953 260.196V220.525C400.953 216.898 402.237 213.798 404.805 211.239C407.373 208.679 410.459 207.4 414.063 207.4L426.201 215.594V215.019L426.89 214.162L428.327 212.671C431.431 209.425 434.77 207.74 438.333 207.629C439.599 207.629 440.689 207.781 441.614 208.086C443.916 208.662 445.86 209.771 447.45 211.409C449.04 213.053 450.047 214.943 450.471 217.085C450.624 218.383 450.701 219.34 450.701 219.95C450.701 222.738 449.741 225.139 447.827 227.147C445.907 229.154 442.862 230.863 438.681 232.277C438.257 232.43 437.892 232.565 437.585 232.677C437.279 232.794 436.855 232.964 436.319 233.193C434.364 233.956 432.762 234.743 431.519 235.541C430.271 236.345 429.334 237.243 428.698 238.236C428.068 239.228 427.626 240.443 427.373 241.875C427.126 243.307 427.002 245.268 427.002 247.751V259.274C427.002 261.757 426.425 264.041 425.276 266.125C424.128 268.209 422.555 269.858 420.559 271.085C418.562 272.306 416.401 272.94 414.057 272.975H414.063V272.981Z" fill="#FFC20C"/>
<path d="M455.872 200.69C453.186 198.013 451.844 194.691 451.844 190.717C451.844 186.743 453.222 183.608 455.984 180.743C457.327 179.446 458.823 178.448 460.472 177.761C462.121 177.074 463.846 176.728 465.648 176.728C469.447 176.728 472.704 178.143 475.425 180.972C478.069 183.725 479.394 187.013 479.394 190.834C479.394 194.655 478.069 198.054 475.425 200.696C472.78 203.337 469.518 204.652 465.648 204.652C461.779 204.652 458.516 203.332 455.872 200.696V200.69ZM465.648 273.21C462.044 273.21 458.964 271.942 456.42 269.4C453.87 266.858 452.597 263.753 452.597 260.084V220.531C452.597 218.124 453.181 215.917 454.353 213.91C455.519 211.902 457.115 210.317 459.129 209.149C461.143 207.981 463.357 207.4 465.772 207.4C468.151 207.441 470.336 208.051 472.327 209.231C474.318 210.417 475.902 212.002 477.074 213.992C478.24 215.982 478.829 218.195 478.829 220.643V259.967C478.829 263.677 477.545 266.805 474.977 269.371C472.409 271.93 469.3 273.21 465.66 273.21H465.648Z" fill="#FFC20C"/>
<path d="M489.807 268.907C487.198 266.078 485.896 262.79 485.896 259.045V201.717C485.896 197.209 487.162 193.599 489.695 190.881C492.227 188.169 495.484 186.813 499.471 186.813H524.778C531.103 186.813 536.74 188.157 541.687 190.852C546.634 193.546 550.468 197.215 553.189 201.858C555.91 206.501 557.27 211.673 557.27 217.367C557.076 225.509 554.449 232.254 549.39 237.602C544.331 242.955 537.505 246.143 528.913 247.176C527.146 247.405 525.42 247.522 523.736 247.522H513.094V259.274C513.094 263.325 511.733 266.653 509.012 269.248C506.444 271.807 503.299 273.087 499.577 273.087C495.855 273.087 492.486 271.689 489.801 268.901L489.807 268.907ZM513.099 223.789H523.971C525.773 223.789 527.305 223.161 528.571 221.899C529.914 220.56 530.585 219.052 530.585 217.373C530.585 215.694 529.955 214.162 528.689 212.9C527.311 211.638 525.738 211.01 523.971 211.01H513.099V223.795V223.789Z" fill="#221E1F"/>
<path d="M582.288 207.629C584.78 207.13 586.717 206.883 588.095 206.883C593.92 206.883 598.773 208.773 602.648 212.56V212.906L613.52 207.118C614.439 206.507 615.534 206.202 616.8 206.202C618.679 206.202 620.251 206.912 621.518 208.321C624.739 211.532 626.347 215.489 626.347 220.185V259.967C626.347 263.829 625.122 266.982 622.666 269.424C620.21 271.872 617.124 273.093 613.408 273.093L602.654 267.017V267.592C599.091 271.337 594.273 273.21 588.219 273.21C586.222 273.21 583.979 272.981 581.487 272.523C577.924 271.836 574.45 270.334 571.075 268.021C567.7 265.708 564.767 262.679 562.276 258.934C560.586 256.104 559.325 253.105 558.477 249.935C557.635 246.765 557.211 243.131 557.211 239.046C557.482 233.774 558.754 228.896 561.033 224.429C563.313 219.956 566.316 216.258 570.032 213.334C573.749 210.411 577.836 208.509 582.282 207.629H582.288ZM583.266 240.707C583.266 243.384 584.049 245.732 585.622 247.757C587.347 249.858 589.491 250.909 592.065 250.909C593.596 250.909 595.057 250.498 596.435 249.676C597.813 248.855 598.908 247.663 599.715 246.096C600.404 244.951 600.811 243.824 600.922 242.714C600.999 241.834 601.04 240.613 601.04 239.046C600.463 235.113 598.661 232.453 595.634 231.08C594.332 230.469 593.101 230.164 591.953 230.164C589.844 230.164 588.025 230.927 586.487 232.459C584.95 233.986 583.955 236.034 583.496 238.594C583.454 238.975 583.425 239.31 583.407 239.597C583.39 239.885 583.337 240.255 583.266 240.713V240.707Z" fill="#221E1F"/>
<path d="M639.109 208.544C640.988 207.664 642.908 207.223 644.863 207.223C646.589 207.223 648.244 207.605 649.84 208.368C651.43 209.131 652.891 210.311 654.21 211.896C655.535 213.481 656.577 215.383 657.343 217.602L663.957 236.005L669.94 217.948C670.441 216.305 671.224 214.549 672.296 212.677C673.333 210.922 674.752 209.571 676.554 208.638C678.356 207.705 680.27 207.235 682.308 207.235C686.219 207.235 689.552 208.726 692.314 211.708C694.458 213.962 695.536 216.751 695.536 220.079C695.536 222.069 695.094 224.018 694.211 225.926L665.223 292.364C662.426 298.71 658.38 301.88 653.085 301.88C651.972 301.88 650.611 301.61 649.004 301.075C646.206 300.195 644.027 298.733 642.478 296.69C640.923 294.648 640.146 292.305 640.146 289.67C640.146 287.909 640.588 286.118 641.471 284.281L650.499 265.708L632.496 225.004C631.883 223.63 631.577 222.098 631.577 220.419C631.577 217.895 632.248 215.559 633.591 213.399C634.934 211.239 636.771 209.624 639.115 208.556V208.544H639.109Z" fill="#221E1F"/>
</g>
<path d="M796.5 120.277H821.07V122.347H796.5V120.277ZM807.42 113.707H809.88V120.967H807.42V113.707ZM807.36 100.537H809.52V102.637C809.52 108.427 803.97 112.897 798.51 114.037L797.46 111.967C802.23 111.097 807.36 107.107 807.36 102.637V100.537ZM807.81 100.537H809.97V102.637C809.97 107.137 815.13 111.097 819.9 111.967L818.82 114.037C813.36 112.897 807.81 108.427 807.81 102.637V100.537ZM835.078 112.297H837.568V117.037H835.078V112.297ZM824.068 111.427H848.578V113.437H824.068V111.427ZM836.308 116.287C842.128 116.287 845.608 117.997 845.608 121.057C845.608 124.087 842.128 125.797 836.308 125.797C830.488 125.797 827.008 124.087 827.008 121.057C827.008 117.997 830.488 116.287 836.308 116.287ZM836.308 118.207C832.078 118.207 829.528 119.227 829.528 121.057C829.528 122.857 832.078 123.877 836.308 123.877C840.568 123.877 843.088 122.857 843.088 121.057C843.088 119.227 840.568 118.207 836.308 118.207ZM834.718 100.957H836.938V101.767C836.938 106.147 831.958 109.087 826.348 109.777L825.448 107.797C830.308 107.287 834.718 104.857 834.718 101.767V100.957ZM835.768 100.957H837.958V101.767C837.958 104.857 842.368 107.287 847.228 107.797L846.328 109.777C840.718 109.087 835.768 106.147 835.768 101.767V100.957ZM826.318 99.9666H846.388V101.977H826.318V99.9666ZM870.235 98.7666H872.725V119.107H870.235V98.7666ZM871.945 107.647H876.745V109.747H871.945V107.647ZM851.755 102.037H867.775V104.047H851.755V102.037ZM859.765 105.547C863.605 105.547 866.245 107.557 866.245 110.617C866.245 113.647 863.605 115.657 859.765 115.657C855.895 115.657 853.255 113.647 853.255 110.617C853.255 107.557 855.895 105.547 859.765 105.547ZM859.765 107.497C857.305 107.497 855.625 108.727 855.625 110.617C855.625 112.477 857.305 113.707 859.765 113.707C862.195 113.707 863.875 112.477 863.875 110.617C863.875 108.727 862.195 107.497 859.765 107.497ZM858.505 98.7366H860.995V103.087H858.505V98.7366ZM855.835 123.217H873.955V125.257H855.835V123.217ZM855.835 117.487H858.325V124.087H855.835V117.487ZM893.802 100.147H895.872V102.907C895.872 108.127 892.932 112.447 888.402 114.217L887.082 112.207C891.162 110.707 893.802 107.047 893.802 102.907V100.147ZM894.252 100.147H896.292V103.087C896.292 106.747 898.992 110.137 902.892 111.487L901.572 113.437C897.222 111.817 894.252 107.797 894.252 103.087V100.147ZM905.772 98.7366H908.262V115.177H905.772V98.7366ZM907.572 105.727H912.282V107.827H907.572V105.727ZM899.622 115.927C905.172 115.927 908.532 117.757 908.532 120.877C908.532 123.997 905.172 125.797 899.622 125.797C894.072 125.797 890.712 123.997 890.712 120.877C890.712 117.757 894.072 115.927 899.622 115.927ZM899.622 117.907C895.602 117.907 893.142 118.987 893.142 120.877C893.142 122.767 895.602 123.847 899.622 123.847C903.642 123.847 906.102 122.767 906.102 120.877C906.102 118.987 903.642 117.907 899.622 117.907ZM925.84 113.137H928.3V117.817H925.84V113.137ZM914.8 111.817H939.31V113.857H914.8V111.817ZM917.08 99.5766H937V101.617H917.08V99.5766ZM917.2 107.287H936.88V109.327H917.2V107.287ZM921.19 100.477H923.68V108.607H921.19V100.477ZM930.43 100.477H932.89V108.607H930.43V100.477ZM917.8 117.007H936.31V125.497H917.8V117.007ZM933.88 118.987H920.26V123.487H933.88V118.987ZM949.868 110.917H952.328V117.487H949.868V110.917ZM962.228 98.7366H964.718V119.227H962.228V98.7366ZM946.208 123.217H965.378V125.257H946.208V123.217ZM946.208 117.007H948.698V123.847H946.208V117.007ZM942.548 111.517L942.218 109.447C947.198 109.447 954.008 109.357 959.798 108.547L959.978 110.347C954.068 111.367 947.468 111.487 942.548 111.517ZM956.348 113.497H962.858V115.477H956.348V113.497ZM944.678 100.387H956.378V102.397H944.678V100.387ZM954.848 100.387H957.308V101.407C957.308 103.057 957.308 105.907 956.588 109.837L954.128 109.657C954.848 105.697 954.848 102.997 954.848 101.407V100.387ZM974.811 120.534L974.651 121.695C974.545 122.547 974.363 123.435 974.108 124.358C973.859 125.289 973.6 126.152 973.33 126.947C973.067 127.742 972.851 128.375 972.68 128.843H970.422C970.514 128.403 970.642 127.806 970.805 127.054C970.969 126.308 971.128 125.473 971.285 124.55C971.441 123.627 971.558 122.686 971.636 121.727L971.743 120.534H974.811ZM816.18 134.707H818.67V161.887H816.18V134.707ZM804.36 136.807C808.38 136.807 811.26 140.497 811.26 146.257C811.26 152.047 808.38 155.737 804.36 155.737C800.37 155.737 797.49 152.047 797.49 146.257C797.49 140.497 800.37 136.807 804.36 136.807ZM804.36 139.057C801.72 139.057 799.86 141.877 799.86 146.257C799.86 150.667 801.72 153.547 804.36 153.547C807.03 153.547 808.86 150.667 808.86 146.257C808.86 141.877 807.03 139.057 804.36 139.057ZM844.558 134.767H846.928V155.137H844.558V134.767ZM835.288 142.237H840.238V144.307H835.288V142.237ZM839.338 135.307H841.678V154.417H839.338V135.307ZM829.258 159.217H847.768V161.257H829.258V159.217ZM829.258 152.677H831.748V160.417H829.258V152.677ZM829.708 138.727H831.658V140.917C831.658 145.147 829.468 149.347 825.478 151.087L824.188 149.167C827.668 147.637 829.708 144.157 829.708 140.917V138.727ZM830.128 138.727H832.078V140.887C832.078 143.887 834.028 147.097 837.388 148.507L836.128 150.427C832.198 148.807 830.128 144.877 830.128 140.887V138.727ZM824.698 137.317H836.758V139.357H824.698V137.317ZM878.175 134.737H880.665V148.537H878.175V134.737ZM879.585 140.557H884.655V142.627H879.585V140.557ZM863.445 149.827H880.665V156.487H865.965V160.537H863.505V154.597H878.235V151.807H863.445V149.827ZM863.505 159.487H881.655V161.497H863.505V159.487ZM867.105 135.697C871.185 135.697 874.125 138.187 874.125 141.727C874.125 145.297 871.185 147.787 867.105 147.787C863.085 147.787 860.115 145.297 860.115 141.727C860.115 138.187 863.085 135.697 867.105 135.697ZM867.105 137.737C864.495 137.737 862.545 139.387 862.545 141.727C862.545 144.097 864.495 145.747 867.105 145.747C869.775 145.747 871.725 144.097 871.725 141.727C871.725 139.387 869.775 137.737 867.105 137.737ZM906.912 134.707H909.402V161.887H906.912V134.707ZM895.092 136.807C899.112 136.807 901.992 140.497 901.992 146.257C901.992 152.047 899.112 155.737 895.092 155.737C891.102 155.737 888.222 152.047 888.222 146.257C888.222 140.497 891.102 136.807 895.092 136.807ZM895.092 139.057C892.452 139.057 890.592 141.877 890.592 146.257C890.592 150.667 892.452 153.547 895.092 153.547C897.762 153.547 899.592 150.667 899.592 146.257C899.592 141.877 897.762 139.057 895.092 139.057ZM925.81 145.267H930.94V147.337H925.81V145.267ZM935.47 134.737H937.87V161.857H935.47V134.737ZM930.1 135.307H932.47V160.507H930.1V135.307ZM920.92 136.987C924.43 136.987 926.71 140.617 926.71 146.437C926.71 152.257 924.43 155.887 920.92 155.887C917.41 155.887 915.16 152.257 915.16 146.437C915.16 140.617 917.41 136.987 920.92 136.987ZM920.92 139.297C918.79 139.297 917.44 142.057 917.44 146.437C917.44 150.817 918.79 153.577 920.92 153.577C923.08 153.577 924.43 150.817 924.43 146.437C924.43 142.057 923.08 139.297 920.92 139.297ZM963.068 134.737H965.468V161.857H963.068V134.737ZM951.308 145.807H958.148V147.817H951.308V145.807ZM957.428 135.427H959.768V160.477H957.428V135.427ZM951.638 138.157H954.038C954.038 145.267 951.188 151.657 943.868 156.007L942.398 154.237C948.788 150.397 951.638 144.997 951.638 138.607V138.157ZM943.598 138.157H952.568V140.197H943.598V138.157ZM979.075 136.627H991.525V147.877H979.075V136.627ZM989.095 138.637H981.505V145.867H989.095V138.637ZM996.505 134.737H998.995V149.347H996.505V134.737ZM998.305 140.977H1003.01V143.077H998.305V140.977ZM981.985 150.817H999.145V152.647H984.475V160.627H981.985V150.817ZM981.985 159.667H999.775V161.497H981.985V159.667ZM983.635 155.167H998.875V156.967H983.635V155.167ZM1016.75 137.647H1019.18C1019.18 145.387 1015.82 152.317 1006.88 156.727L1005.56 154.777C1013.24 150.967 1016.75 145.207 1016.75 138.067V137.647ZM1006.73 137.647H1017.98V139.687H1006.73V137.647ZM1025.36 134.707H1027.85V161.827H1025.36V134.707ZM1018.19 142.147H1025.87V144.157H1018.19V142.147ZM1017.89 149.437H1025.57V151.477H1017.89V149.437ZM1044.02 137.407H1046.18V138.547C1046.18 143.407 1041.02 146.977 1035.56 147.907L1034.6 145.927C1039.37 145.237 1044.02 142.117 1044.02 138.547V137.407ZM1044.65 137.407H1046.78V138.547C1046.78 142.117 1051.46 145.237 1056.2 145.927L1055.27 147.907C1049.78 146.977 1044.65 143.407 1044.65 138.547V137.407ZM1044.11 151.507H1046.57V161.857H1044.11V151.507ZM1033.16 150.187H1057.67V152.227H1033.16V150.187ZM1035.44 136.417H1055.3V138.427H1035.44V136.417ZM1071.44 144.427H1076.63V146.497H1071.44V144.427ZM1066.37 137.287H1068.32V142.447C1068.32 148.117 1065.95 153.607 1061.99 156.037L1060.43 154.147C1064.15 151.957 1066.37 147.097 1066.37 142.447V137.287ZM1066.85 137.287H1068.77V142.357C1068.77 146.707 1070.81 151.327 1074.38 153.487L1072.94 155.437C1069.04 153.037 1066.85 147.637 1066.85 142.357V137.287ZM1081.4 134.737H1083.8V161.857H1081.4V134.737ZM1075.91 135.307H1078.25V160.507H1075.91V135.307ZM1094.36 148.687H1096.82V156.817H1094.36V148.687ZM1104.38 148.687H1106.87V156.817H1104.38V148.687ZM1088.36 156.337H1112.93V158.407H1088.36V156.337ZM1100.6 136.447C1106.33 136.447 1110.44 139.177 1110.44 143.437C1110.44 147.667 1106.33 150.397 1100.6 150.397C1094.84 150.397 1090.73 147.667 1090.73 143.437C1090.73 139.177 1094.84 136.447 1100.6 136.447ZM1100.6 138.427C1096.25 138.427 1093.13 140.407 1093.13 143.437C1093.13 146.437 1096.25 148.417 1100.6 148.417C1104.95 148.417 1108.04 146.437 1108.04 143.437C1108.04 140.407 1104.95 138.427 1100.6 138.427ZM1118.69 159.719C1118.11 159.719 1117.61 159.513 1117.19 159.101C1116.77 158.682 1116.56 158.178 1116.56 157.588C1116.56 157.006 1116.77 156.509 1117.19 156.097C1117.61 155.678 1118.11 155.468 1118.69 155.468C1119.28 155.468 1119.78 155.678 1120.2 156.097C1120.61 156.509 1120.82 157.006 1120.82 157.588C1120.82 157.979 1120.72 158.338 1120.53 158.664C1120.33 158.984 1120.08 159.24 1119.76 159.431C1119.44 159.623 1119.08 159.719 1118.69 159.719ZM807.96 194.732C814.305 194.732 818.895 200.492 818.895 209.582C818.895 218.762 814.305 224.522 807.96 224.522C801.615 224.522 797.025 218.762 797.025 209.582C797.025 200.492 801.615 194.732 807.96 194.732ZM807.96 200.177C804.855 200.177 802.785 203.462 802.785 209.582C802.785 215.792 804.855 219.122 807.96 219.122C811.065 219.122 813.18 215.792 813.18 209.582C813.18 203.462 811.065 200.177 807.96 200.177ZM823.44 191.852H829.47V233.522H823.44V191.852ZM828.12 207.557H835.5V212.507H828.12V207.557ZM866.906 191.807H872.891V233.612H866.906V191.807ZM840.446 219.032H844.136C851.516 219.032 857.411 218.762 864.026 217.637L864.611 222.452C857.861 223.667 851.741 223.892 844.136 223.892H840.446V219.032ZM840.401 195.362H860.066V211.472H846.521V220.832H840.446V206.747H853.946V200.132H840.401V195.362ZM910.058 191.852H915.773V233.522H910.058V191.852ZM897.863 207.017H903.443V212.282H897.863V207.017ZM901.778 192.662H907.403V231.587H901.778V192.662ZM879.908 196.532H898.853V201.302H879.908V196.532ZM879.818 224.072L879.188 219.212C884.408 219.212 893.183 219.077 899.483 218.222L899.888 222.542C893.408 223.937 884.948 224.072 879.818 224.072ZM882.473 199.592H887.828V220.472H882.473V199.592ZM890.843 199.592H896.243V220.472H890.843V199.592ZM949.564 191.807H955.594V233.612H949.564V191.807ZM933.139 194.732C939.439 194.732 944.074 200.492 944.074 209.582C944.074 218.762 939.439 224.522 933.139 224.522C926.839 224.522 922.204 218.762 922.204 209.582C922.204 200.492 926.839 194.732 933.139 194.732ZM933.139 200.177C930.034 200.177 927.919 203.462 927.919 209.582C927.919 215.792 930.034 219.122 933.139 219.122C936.244 219.122 938.314 215.792 938.314 209.582C938.314 203.462 936.244 200.177 933.139 200.177Z" fill="black"/>
<rect x="795" y="272.517" width="328" height="71" rx="10" fill="#FFC20C"/>
<path d="M861.876 311.889L847.302 318.622V314.84L857.657 310.398L857.54 310.6V310.11L857.657 310.313L847.302 305.87V302.088L861.876 308.821V311.889ZM873.357 315.207H898.497V318.477H873.357V315.207ZM875.277 296.307H896.427V299.487H875.277V296.307ZM875.397 307.797H896.337V311.007H875.397V307.797ZM879.057 299.247H883.047V308.097H879.057V299.247ZM888.687 299.247H892.647V308.097H888.687V299.247ZM900.955 315.387H926.095V318.627H900.955V315.387ZM911.485 310.137H915.475V316.707H911.485V310.137ZM903.775 295.707H923.275V304.947H907.795V309.627H903.835V301.827H919.315V298.857H903.775V295.707ZM903.835 308.037H923.905V311.247H903.835V308.037ZM940.012 300.777H944.362V303.987H940.012V300.777ZM942.982 294.447H946.702V310.707H942.982V294.447ZM933.412 298.077H936.502V299.847C936.502 304.497 934.672 308.847 930.172 310.647L928.162 307.557C931.882 306.087 933.412 302.937 933.412 299.847V298.077ZM934.162 298.077H937.252V299.847C937.252 302.817 938.692 305.697 942.172 307.077L940.222 310.137C935.872 308.457 934.162 304.317 934.162 299.847V298.077ZM929.032 295.887H941.302V299.067H929.032V295.887ZM948.412 293.907H952.192V310.827H948.412V293.907ZM933.112 311.847H952.192V321.687H948.232V315.027H933.112V311.847ZM959.09 308.217H978.62V311.337H959.09V308.217ZM956.15 315.267H981.29V318.507H956.15V315.267ZM959.09 295.917H978.38V299.127H963.14V309.087H959.09V295.917ZM961.91 302.037H977.75V305.127H961.91V302.037ZM992.479 311.787H994.729C999.649 311.787 1002.86 311.667 1006.46 311.007L1006.85 314.217C1003.13 314.907 999.799 315.057 994.729 315.057H992.479V311.787ZM992.479 296.367H1005.05V299.547H996.469V313.017H992.479V296.367ZM1010.51 293.907H1014.5V321.777H1010.51V293.907ZM1003.7 303.477H1012.19V306.717H1003.7V303.477ZM1018.79 315.237H1043.93V318.477H1018.79V315.237ZM1029.32 309.297H1033.31V316.017H1029.32V309.297ZM1021.43 295.677H1025.39V299.937H1037.24V295.677H1041.2V310.137H1021.43V295.677ZM1025.39 303.057V306.957H1037.24V303.057H1025.39ZM1065.49 293.907H1069.51V321.687H1065.49V293.907ZM1057.3 296.787H1061.26C1061.26 305.277 1058.38 312.237 1048.51 317.007L1046.44 313.827C1054.42 309.987 1057.3 304.947 1057.3 297.507V296.787ZM1047.91 296.787H1059.19V299.937H1047.91V296.787Z" fill="white"/>
<defs>
<clipPath id="clip0_1250_381">
<rect width="618" height="249" fill="white" transform="translate(77 94.5166)"/>
</clipPath>
</defs>
</svg>
