<svg width="1230" height="503" viewBox="0 0 1230 503" fill="none" xmlns="http://www.w3.org/2000/svg">
<g filter="url(#filter0_d_57_234)">
<rect x="11" y="11.5166" width="1200" height="472" rx="30" fill="white" shape-rendering="crispEdges"/>
<g clip-path="url(#clip0_57_234)">
<path d="M197.908 342.254C146.883 341.033 107.565 310.156 98.5658 254.272C94.343 228.068 108.054 188.556 124.532 170.188C143.791 148.721 166.612 134.204 197.908 134.204" fill="#FFC20C"/>
<path d="M197.908 342.254C146.883 341.033 107.565 310.156 98.5658 254.272C94.343 228.068 108.054 188.556 124.532 170.188C143.791 148.721 166.612 134.204 197.908 134.204" stroke="#2E2310" stroke-width="8" stroke-miterlimit="10"/>
<path d="M197.908 342.254C248.934 341.033 288.252 310.156 297.251 254.272C301.474 228.068 287.763 188.556 271.285 170.188C252.026 148.721 229.205 134.204 197.908 134.204" fill="#FFC20C"/>
<path d="M197.908 342.254C248.934 341.033 288.252 310.156 297.251 254.272C301.474 228.068 287.763 188.556 271.285 170.188C252.026 148.721 229.205 134.204 197.908 134.204" stroke="#2E2310" stroke-width="8" stroke-miterlimit="10"/>
<path d="M197.779 352.168C178.75 352.168 159.498 347.877 142.183 338.738C113.33 323.505 102.794 301.879 96.2865 282.73C89.3017 262.15 90.3971 231.977 90.4501 230.703C90.5267 228.754 91.6692 226.999 93.4243 226.13C95.1793 225.262 97.27 225.42 98.8779 226.541C111.399 235.288 125.392 244.909 131.234 248.707L160.481 225.614C162.354 224.135 164.992 224.076 166.93 225.461L198.709 248.22L229.01 225.802C230.924 224.393 233.533 224.399 235.436 225.831L265.171 248.249L296.032 226.383C297.557 225.303 299.536 225.091 301.256 225.831C302.97 226.565 304.177 228.144 304.442 229.987C304.678 231.648 310.002 271.078 294.477 300.171C276.897 333.108 237.862 352.163 197.791 352.163H197.779V352.168Z" fill="white" stroke="#2F2004" stroke-width="8" stroke-miterlimit="10"/>
<path d="M234.757 197.133C236.144 194.25 233.203 189.97 228.189 187.572C223.174 185.174 217.984 185.566 216.597 188.449C215.21 191.331 218.15 195.611 223.165 198.009C228.18 200.407 233.37 200.015 234.757 197.133Z" fill="#2F2004"/>
<path d="M172.645 198.027C177.66 195.629 180.601 191.348 179.214 188.466C177.826 185.584 172.636 185.192 167.622 187.59C162.607 189.988 159.666 194.268 161.054 197.15C162.441 200.032 167.631 200.425 172.645 198.027Z" fill="#2F2004"/>
<path d="M197.903 208.555C201.627 208.555 204.646 206.889 204.646 204.834C204.646 202.778 201.627 201.112 197.903 201.112C194.178 201.112 191.159 202.778 191.159 204.834C191.159 206.889 194.178 208.555 197.903 208.555Z" fill="#F15A28"/>
<path d="M197.926 212.277C201.651 212.277 204.67 210.611 204.67 208.555C204.67 206.5 201.651 204.834 197.926 204.834C194.202 204.834 191.183 206.5 191.183 208.555C191.183 210.611 194.202 212.277 197.926 212.277Z" fill="#F15A28"/>
<path d="M200.188 161.13C199.528 160.303 188.585 146.044 194.758 129.009C199.027 117.227 209.787 108.798 222.479 107.278" stroke="#2E2310" stroke-width="6" stroke-miterlimit="10" stroke-linecap="round"/>
<path d="M150.169 210.481C156.385 210.481 161.424 207.953 161.424 204.834C161.424 201.715 156.385 199.187 150.169 199.187C143.953 199.187 138.914 201.715 138.914 204.834C138.914 207.953 143.953 210.481 150.169 210.481Z" fill="#F47A35"/>
<path d="M245.684 210.481C251.899 210.481 256.938 207.952 256.938 204.834C256.938 201.715 251.899 199.187 245.684 199.187C239.468 199.187 234.429 201.715 234.429 204.834C234.429 207.952 239.468 210.481 245.684 210.481Z" fill="#F47A35"/>
<path d="M334.13 283.288C331.486 282.144 329.442 280.547 328.005 278.504C326.568 276.461 325.85 274.101 325.85 271.425C325.85 269.441 326.368 267.01 327.405 264.146L347.652 212.036C349.531 207.258 352.264 203.583 355.851 201.001C359.437 198.424 363.53 197.132 368.13 197.132C372.73 197.132 376.882 198.424 380.468 201.001C384.055 203.578 386.788 207.258 388.666 212.036L408.914 264.146C409.951 267.163 410.469 269.593 410.469 271.425C410.469 274.101 409.75 276.461 408.313 278.504C406.876 280.547 404.833 282.144 402.188 283.288C400.351 284.092 398.466 284.492 396.552 284.492C393.831 284.492 391.311 283.635 388.99 281.915C386.67 280.195 384.956 277.806 383.843 274.747L382.518 270.849H353.931L352.494 274.747C351.457 277.729 349.779 280.101 347.464 281.856C345.144 283.611 342.582 284.492 339.784 284.492C337.864 284.492 335.986 284.092 334.148 283.288H334.13ZM361.793 247.228H374.502L368.118 224.469L361.793 247.228Z" fill="#FFC20C"/>
<path d="M425.063 283.981C421.459 283.981 418.373 282.748 415.805 280.283C413.237 277.817 411.953 274.788 411.953 271.196V231.525C411.953 227.898 413.237 224.798 415.805 222.239C418.373 219.679 421.459 218.4 425.063 218.4L437.201 226.594V226.019L437.89 225.162L439.327 223.671C442.431 220.425 445.77 218.74 449.333 218.629C450.599 218.629 451.689 218.781 452.614 219.086C454.916 219.662 456.86 220.771 458.45 222.409C460.04 224.053 461.047 225.943 461.471 228.085C461.624 229.383 461.701 230.34 461.701 230.95C461.701 233.738 460.741 236.139 458.827 238.147C456.907 240.154 453.862 241.863 449.681 243.277C449.257 243.43 448.892 243.565 448.585 243.677C448.279 243.794 447.855 243.964 447.319 244.193C445.364 244.956 443.762 245.743 442.519 246.541C441.271 247.345 440.334 248.243 439.698 249.236C439.068 250.228 438.626 251.443 438.373 252.875C438.126 254.307 438.002 256.268 438.002 258.751V270.274C438.002 272.757 437.425 275.041 436.276 277.125C435.128 279.209 433.555 280.858 431.559 282.085C429.562 283.306 427.401 283.94 425.057 283.975H425.063V283.981Z" fill="#FFC20C"/>
<path d="M466.872 211.69C464.186 209.013 462.844 205.691 462.844 201.717C462.844 197.743 464.222 194.608 466.984 191.743C468.327 190.446 469.823 189.448 471.472 188.761C473.121 188.074 474.846 187.728 476.648 187.728C480.447 187.728 483.704 189.143 486.425 191.972C489.069 194.725 490.394 198.013 490.394 201.834C490.394 205.655 489.069 209.054 486.425 211.696C483.78 214.337 480.518 215.652 476.648 215.652C472.779 215.652 469.516 214.332 466.872 211.696V211.69ZM476.648 284.21C473.044 284.21 469.964 282.942 467.42 280.4C464.87 277.858 463.597 274.753 463.597 271.084V231.531C463.597 229.124 464.181 226.917 465.353 224.91C466.519 222.902 468.115 221.317 470.129 220.149C472.143 218.981 474.357 218.4 476.772 218.4C479.151 218.441 481.336 219.051 483.327 220.231C485.318 221.417 486.902 223.002 488.074 224.992C489.24 226.982 489.829 229.195 489.829 231.643V270.967C489.829 274.677 488.545 277.805 485.977 280.371C483.409 282.93 480.3 284.21 476.66 284.21H476.648Z" fill="#FFC20C"/>
<path d="M500.807 279.907C498.198 277.078 496.896 273.79 496.896 270.045V212.717C496.896 208.209 498.162 204.599 500.695 201.881C503.227 199.169 506.484 197.813 510.471 197.813H535.778C542.103 197.813 547.74 199.157 552.687 201.852C557.634 204.546 561.468 208.215 564.189 212.858C566.91 217.501 568.27 222.673 568.27 228.367C568.076 236.509 565.449 243.254 560.39 248.602C555.331 253.955 548.505 257.143 539.913 258.176C538.146 258.405 536.42 258.522 534.736 258.522H524.094V270.274C524.094 274.325 522.733 277.653 520.012 280.248C517.444 282.807 514.299 284.087 510.577 284.087C506.855 284.087 503.486 282.689 500.801 279.901L500.807 279.907ZM524.099 234.789H534.971C536.773 234.789 538.305 234.161 539.571 232.899C540.914 231.56 541.585 230.052 541.585 228.373C541.585 226.694 540.955 225.162 539.689 223.9C538.311 222.638 536.738 222.01 534.971 222.01H524.099V234.795V234.789Z" fill="#221E1F"/>
<path d="M593.288 218.629C595.78 218.13 597.717 217.883 599.095 217.883C604.92 217.883 609.773 219.773 613.648 223.56V223.906L624.52 218.118C625.439 217.507 626.534 217.202 627.8 217.202C629.679 217.202 631.251 217.912 632.518 219.321C635.739 222.532 637.347 226.489 637.347 231.185V270.967C637.347 274.829 636.122 277.982 633.666 280.424C631.21 282.872 628.124 284.093 624.408 284.093L613.654 278.017V278.592C610.091 282.337 605.273 284.21 599.219 284.21C597.222 284.21 594.979 283.981 592.487 283.523C588.924 282.836 585.45 281.334 582.075 279.021C578.7 276.708 575.767 273.679 573.276 269.934C571.586 267.104 570.325 264.105 569.477 260.935C568.635 257.765 568.211 254.131 568.211 250.046C568.482 244.774 569.754 239.896 572.033 235.429C574.313 230.956 577.316 227.258 581.032 224.334C584.749 221.411 588.836 219.509 593.282 218.629H593.288ZM594.266 251.707C594.266 254.384 595.049 256.732 596.622 258.757C598.347 260.858 600.491 261.909 603.065 261.909C604.596 261.909 606.057 261.498 607.435 260.676C608.813 259.855 609.908 258.663 610.715 257.096C611.404 255.951 611.811 254.824 611.922 253.714C611.999 252.834 612.04 251.613 612.04 250.046C611.463 246.113 609.661 243.453 606.634 242.08C605.332 241.469 604.101 241.164 602.953 241.164C600.844 241.164 599.025 241.927 597.487 243.459C595.95 244.986 594.955 247.034 594.496 249.594C594.454 249.975 594.425 250.31 594.407 250.597C594.39 250.885 594.337 251.255 594.266 251.713V251.707Z" fill="#221E1F"/>
<path d="M650.109 219.544C651.988 218.664 653.908 218.223 655.863 218.223C657.589 218.223 659.244 218.605 660.84 219.368C662.43 220.131 663.891 221.311 665.21 222.896C666.535 224.481 667.577 226.383 668.343 228.602L674.957 247.005L680.94 228.948C681.441 227.305 682.224 225.549 683.296 223.677C684.333 221.922 685.752 220.571 687.554 219.638C689.356 218.705 691.27 218.235 693.308 218.235C697.219 218.235 700.552 219.726 703.314 222.708C705.458 224.962 706.536 227.751 706.536 231.079C706.536 233.069 706.094 235.018 705.211 236.926L676.223 303.364C673.426 309.71 669.38 312.88 664.085 312.88C662.972 312.88 661.611 312.61 660.004 312.075C657.206 311.195 655.027 309.733 653.478 307.69C651.923 305.648 651.146 303.305 651.146 300.67C651.146 298.909 651.588 297.118 652.471 295.281L661.499 276.708L643.496 236.004C642.883 234.63 642.577 233.098 642.577 231.419C642.577 228.895 643.248 226.559 644.591 224.399C645.934 222.239 647.771 220.624 650.115 219.556V219.544H650.109Z" fill="#221E1F"/>
</g>
<path d="M807.5 131.277H832.07V133.347H807.5V131.277ZM818.42 124.707H820.88V131.967H818.42V124.707ZM818.36 111.537H820.52V113.637C820.52 119.427 814.97 123.897 809.51 125.037L808.46 122.967C813.23 122.097 818.36 118.107 818.36 113.637V111.537ZM818.81 111.537H820.97V113.637C820.97 118.137 826.13 122.097 830.9 122.967L829.82 125.037C824.36 123.897 818.81 119.427 818.81 113.637V111.537ZM846.078 123.297H848.568V128.037H846.078V123.297ZM835.068 122.427H859.578V124.437H835.068V122.427ZM847.308 127.287C853.128 127.287 856.608 128.997 856.608 132.057C856.608 135.087 853.128 136.797 847.308 136.797C841.488 136.797 838.008 135.087 838.008 132.057C838.008 128.997 841.488 127.287 847.308 127.287ZM847.308 129.207C843.078 129.207 840.528 130.227 840.528 132.057C840.528 133.857 843.078 134.877 847.308 134.877C851.568 134.877 854.088 133.857 854.088 132.057C854.088 130.227 851.568 129.207 847.308 129.207ZM845.718 111.957H847.938V112.767C847.938 117.147 842.958 120.087 837.348 120.777L836.448 118.797C841.308 118.287 845.718 115.857 845.718 112.767V111.957ZM846.768 111.957H848.958V112.767C848.958 115.857 853.368 118.287 858.228 118.797L857.328 120.777C851.718 120.087 846.768 117.147 846.768 112.767V111.957ZM837.318 110.967H857.388V112.977H837.318V110.967ZM881.235 109.767H883.725V130.107H881.235V109.767ZM882.945 118.647H887.745V120.747H882.945V118.647ZM862.755 113.037H878.775V115.047H862.755V113.037ZM870.765 116.547C874.605 116.547 877.245 118.557 877.245 121.617C877.245 124.647 874.605 126.657 870.765 126.657C866.895 126.657 864.255 124.647 864.255 121.617C864.255 118.557 866.895 116.547 870.765 116.547ZM870.765 118.497C868.305 118.497 866.625 119.727 866.625 121.617C866.625 123.477 868.305 124.707 870.765 124.707C873.195 124.707 874.875 123.477 874.875 121.617C874.875 119.727 873.195 118.497 870.765 118.497ZM869.505 109.737H871.995V114.087H869.505V109.737ZM866.835 134.217H884.955V136.257H866.835V134.217ZM866.835 128.487H869.325V135.087H866.835V128.487ZM904.802 111.147H906.872V113.907C906.872 119.127 903.932 123.447 899.402 125.217L898.082 123.207C902.162 121.707 904.802 118.047 904.802 113.907V111.147ZM905.252 111.147H907.292V114.087C907.292 117.747 909.992 121.137 913.892 122.487L912.572 124.437C908.222 122.817 905.252 118.797 905.252 114.087V111.147ZM916.772 109.737H919.262V126.177H916.772V109.737ZM918.572 116.727H923.282V118.827H918.572V116.727ZM910.622 126.927C916.172 126.927 919.532 128.757 919.532 131.877C919.532 134.997 916.172 136.797 910.622 136.797C905.072 136.797 901.712 134.997 901.712 131.877C901.712 128.757 905.072 126.927 910.622 126.927ZM910.622 128.907C906.602 128.907 904.142 129.987 904.142 131.877C904.142 133.767 906.602 134.847 910.622 134.847C914.642 134.847 917.102 133.767 917.102 131.877C917.102 129.987 914.642 128.907 910.622 128.907ZM936.84 124.137H939.3V128.817H936.84V124.137ZM925.8 122.817H950.31V124.857H925.8V122.817ZM928.08 110.577H948V112.617H928.08V110.577ZM928.2 118.287H947.88V120.327H928.2V118.287ZM932.19 111.477H934.68V119.607H932.19V111.477ZM941.43 111.477H943.89V119.607H941.43V111.477ZM928.8 128.007H947.31V136.497H928.8V128.007ZM944.88 129.987H931.26V134.487H944.88V129.987ZM960.868 121.917H963.328V128.487H960.868V121.917ZM973.228 109.737H975.718V130.227H973.228V109.737ZM957.208 134.217H976.378V136.257H957.208V134.217ZM957.208 128.007H959.698V134.847H957.208V128.007ZM953.548 122.517L953.218 120.447C958.198 120.447 965.008 120.357 970.798 119.547L970.978 121.347C965.068 122.367 958.468 122.487 953.548 122.517ZM967.348 124.497H973.858V126.477H967.348V124.497ZM955.678 111.387H967.378V113.397H955.678V111.387ZM965.848 111.387H968.308V112.407C968.308 114.057 968.308 116.907 967.588 120.837L965.128 120.657C965.848 116.697 965.848 113.997 965.848 112.407V111.387ZM985.811 131.534L985.651 132.695C985.545 133.547 985.363 134.435 985.108 135.358C984.859 136.289 984.6 137.152 984.33 137.947C984.067 138.742 983.851 139.375 983.68 139.843H981.422C981.514 139.403 981.642 138.806 981.805 138.054C981.969 137.308 982.128 136.473 982.285 135.55C982.441 134.627 982.558 133.686 982.636 132.727L982.743 131.534H985.811ZM827.18 145.707H829.67V172.887H827.18V145.707ZM815.36 147.807C819.38 147.807 822.26 151.497 822.26 157.257C822.26 163.047 819.38 166.737 815.36 166.737C811.37 166.737 808.49 163.047 808.49 157.257C808.49 151.497 811.37 147.807 815.36 147.807ZM815.36 150.057C812.72 150.057 810.86 152.877 810.86 157.257C810.86 161.667 812.72 164.547 815.36 164.547C818.03 164.547 819.86 161.667 819.86 157.257C819.86 152.877 818.03 150.057 815.36 150.057ZM855.558 145.767H857.928V166.137H855.558V145.767ZM846.288 153.237H851.238V155.307H846.288V153.237ZM850.338 146.307H852.678V165.417H850.338V146.307ZM840.258 170.217H858.768V172.257H840.258V170.217ZM840.258 163.677H842.748V171.417H840.258V163.677ZM840.708 149.727H842.658V151.917C842.658 156.147 840.468 160.347 836.478 162.087L835.188 160.167C838.668 158.637 840.708 155.157 840.708 151.917V149.727ZM841.128 149.727H843.078V151.887C843.078 154.887 845.028 158.097 848.388 159.507L847.128 161.427C843.198 159.807 841.128 155.877 841.128 151.887V149.727ZM835.698 148.317H847.758V150.357H835.698V148.317ZM889.175 145.737H891.665V159.537H889.175V145.737ZM890.585 151.557H895.655V153.627H890.585V151.557ZM874.445 160.827H891.665V167.487H876.965V171.537H874.505V165.597H889.235V162.807H874.445V160.827ZM874.505 170.487H892.655V172.497H874.505V170.487ZM878.105 146.697C882.185 146.697 885.125 149.187 885.125 152.727C885.125 156.297 882.185 158.787 878.105 158.787C874.085 158.787 871.115 156.297 871.115 152.727C871.115 149.187 874.085 146.697 878.105 146.697ZM878.105 148.737C875.495 148.737 873.545 150.387 873.545 152.727C873.545 155.097 875.495 156.747 878.105 156.747C880.775 156.747 882.725 155.097 882.725 152.727C882.725 150.387 880.775 148.737 878.105 148.737ZM917.912 145.707H920.402V172.887H917.912V145.707ZM906.092 147.807C910.112 147.807 912.992 151.497 912.992 157.257C912.992 163.047 910.112 166.737 906.092 166.737C902.102 166.737 899.222 163.047 899.222 157.257C899.222 151.497 902.102 147.807 906.092 147.807ZM906.092 150.057C903.452 150.057 901.592 152.877 901.592 157.257C901.592 161.667 903.452 164.547 906.092 164.547C908.762 164.547 910.592 161.667 910.592 157.257C910.592 152.877 908.762 150.057 906.092 150.057ZM936.81 156.267H941.94V158.337H936.81V156.267ZM946.47 145.737H948.87V172.857H946.47V145.737ZM941.1 146.307H943.47V171.507H941.1V146.307ZM931.92 147.987C935.43 147.987 937.71 151.617 937.71 157.437C937.71 163.257 935.43 166.887 931.92 166.887C928.41 166.887 926.16 163.257 926.16 157.437C926.16 151.617 928.41 147.987 931.92 147.987ZM931.92 150.297C929.79 150.297 928.44 153.057 928.44 157.437C928.44 161.817 929.79 164.577 931.92 164.577C934.08 164.577 935.43 161.817 935.43 157.437C935.43 153.057 934.08 150.297 931.92 150.297ZM974.068 145.737H976.468V172.857H974.068V145.737ZM962.308 156.807H969.148V158.817H962.308V156.807ZM968.428 146.427H970.768V171.477H968.428V146.427ZM962.638 149.157H965.038C965.038 156.267 962.188 162.657 954.868 167.007L953.398 165.237C959.788 161.397 962.638 155.997 962.638 149.607V149.157ZM954.598 149.157H963.568V151.197H954.598V149.157ZM990.075 147.627H1002.52V158.877H990.075V147.627ZM1000.09 149.637H992.505V156.867H1000.09V149.637ZM1007.5 145.737H1009.99V160.347H1007.5V145.737ZM1009.3 151.977H1014.01V154.077H1009.3V151.977ZM992.985 161.817H1010.14V163.647H995.475V171.627H992.985V161.817ZM992.985 170.667H1010.77V172.497H992.985V170.667ZM994.635 166.167H1009.87V167.967H994.635V166.167ZM1027.75 148.647H1030.18C1030.18 156.387 1026.82 163.317 1017.88 167.727L1016.56 165.777C1024.24 161.967 1027.75 156.207 1027.75 149.067V148.647ZM1017.73 148.647H1028.98V150.687H1017.73V148.647ZM1036.36 145.707H1038.85V172.827H1036.36V145.707ZM1029.19 153.147H1036.87V155.157H1029.19V153.147ZM1028.89 160.437H1036.57V162.477H1028.89V160.437ZM1055.02 148.407H1057.18V149.547C1057.18 154.407 1052.02 157.977 1046.56 158.907L1045.6 156.927C1050.37 156.237 1055.02 153.117 1055.02 149.547V148.407ZM1055.65 148.407H1057.78V149.547C1057.78 153.117 1062.46 156.237 1067.2 156.927L1066.27 158.907C1060.78 157.977 1055.65 154.407 1055.65 149.547V148.407ZM1055.11 162.507H1057.57V172.857H1055.11V162.507ZM1044.16 161.187H1068.67V163.227H1044.16V161.187ZM1046.44 147.417H1066.3V149.427H1046.44V147.417ZM1082.44 155.427H1087.63V157.497H1082.44V155.427ZM1077.37 148.287H1079.32V153.447C1079.32 159.117 1076.95 164.607 1072.99 167.037L1071.43 165.147C1075.15 162.957 1077.37 158.097 1077.37 153.447V148.287ZM1077.85 148.287H1079.77V153.357C1079.77 157.707 1081.81 162.327 1085.38 164.487L1083.94 166.437C1080.04 164.037 1077.85 158.637 1077.85 153.357V148.287ZM1092.4 145.737H1094.8V172.857H1092.4V145.737ZM1086.91 146.307H1089.25V171.507H1086.91V146.307ZM1105.36 159.687H1107.82V167.817H1105.36V159.687ZM1115.38 159.687H1117.87V167.817H1115.38V159.687ZM1099.36 167.337H1123.93V169.407H1099.36V167.337ZM1111.6 147.447C1117.33 147.447 1121.44 150.177 1121.44 154.437C1121.44 158.667 1117.33 161.397 1111.6 161.397C1105.84 161.397 1101.73 158.667 1101.73 154.437C1101.73 150.177 1105.84 147.447 1111.6 147.447ZM1111.6 149.427C1107.25 149.427 1104.13 151.407 1104.13 154.437C1104.13 157.437 1107.25 159.417 1111.6 159.417C1115.95 159.417 1119.04 157.437 1119.04 154.437C1119.04 151.407 1115.95 149.427 1111.6 149.427ZM1129.69 170.719C1129.11 170.719 1128.61 170.513 1128.19 170.101C1127.77 169.682 1127.56 169.178 1127.56 168.588C1127.56 168.006 1127.77 167.509 1128.19 167.097C1128.61 166.678 1129.11 166.468 1129.69 166.468C1130.28 166.468 1130.78 166.678 1131.2 167.097C1131.61 167.509 1131.82 168.006 1131.82 168.588C1131.82 168.979 1131.72 169.338 1131.53 169.664C1131.33 169.984 1131.08 170.24 1130.76 170.431C1130.44 170.623 1130.08 170.719 1129.69 170.719ZM818.96 205.732C825.305 205.732 829.895 211.492 829.895 220.582C829.895 229.762 825.305 235.522 818.96 235.522C812.615 235.522 808.025 229.762 808.025 220.582C808.025 211.492 812.615 205.732 818.96 205.732ZM818.96 211.177C815.855 211.177 813.785 214.462 813.785 220.582C813.785 226.792 815.855 230.122 818.96 230.122C822.065 230.122 824.18 226.792 824.18 220.582C824.18 214.462 822.065 211.177 818.96 211.177ZM834.44 202.852H840.47V244.522H834.44V202.852ZM839.12 218.557H846.5V223.507H839.12V218.557ZM877.906 202.807H883.891V244.612H877.906V202.807ZM851.446 230.032H855.136C862.516 230.032 868.411 229.762 875.026 228.637L875.611 233.452C868.861 234.667 862.741 234.892 855.136 234.892H851.446V230.032ZM851.401 206.362H871.066V222.472H857.521V231.832H851.446V217.747H864.946V211.132H851.401V206.362ZM921.058 202.852H926.773V244.522H921.058V202.852ZM908.863 218.017H914.443V223.282H908.863V218.017ZM912.778 203.662H918.403V242.587H912.778V203.662ZM890.908 207.532H909.853V212.302H890.908V207.532ZM890.818 235.072L890.188 230.212C895.408 230.212 904.183 230.077 910.483 229.222L910.888 233.542C904.408 234.937 895.948 235.072 890.818 235.072ZM893.473 210.592H898.828V231.472H893.473V210.592ZM901.843 210.592H907.243V231.472H901.843V210.592ZM960.564 202.807H966.594V244.612H960.564V202.807ZM944.139 205.732C950.439 205.732 955.074 211.492 955.074 220.582C955.074 229.762 950.439 235.522 944.139 235.522C937.839 235.522 933.204 229.762 933.204 220.582C933.204 211.492 937.839 205.732 944.139 205.732ZM944.139 211.177C941.034 211.177 938.919 214.462 938.919 220.582C938.919 226.792 941.034 230.122 944.139 230.122C947.244 230.122 949.314 226.792 949.314 220.582C949.314 214.462 947.244 211.177 944.139 211.177Z" fill="black"/>
<rect x="806" y="283.517" width="328" height="71" rx="10" fill="#FFC20C"/>
<path d="M872.876 322.889L858.302 329.622V325.84L868.657 321.398L868.54 321.6V321.11L868.657 321.313L858.302 316.87V313.088L872.876 319.821V322.889ZM884.357 326.207H909.497V329.477H884.357V326.207ZM886.277 307.307H907.427V310.487H886.277V307.307ZM886.397 318.797H907.337V322.007H886.397V318.797ZM890.057 310.247H894.047V319.097H890.057V310.247ZM899.687 310.247H903.647V319.097H899.687V310.247ZM911.955 326.387H937.095V329.627H911.955V326.387ZM922.485 321.137H926.475V327.707H922.485V321.137ZM914.775 306.707H934.275V315.947H918.795V320.627H914.835V312.827H930.315V309.857H914.775V306.707ZM914.835 319.037H934.905V322.247H914.835V319.037ZM951.012 311.777H955.362V314.987H951.012V311.777ZM953.982 305.447H957.702V321.707H953.982V305.447ZM944.412 309.077H947.502V310.847C947.502 315.497 945.672 319.847 941.172 321.647L939.162 318.557C942.882 317.087 944.412 313.937 944.412 310.847V309.077ZM945.162 309.077H948.252V310.847C948.252 313.817 949.692 316.697 953.172 318.077L951.222 321.137C946.872 319.457 945.162 315.317 945.162 310.847V309.077ZM940.032 306.887H952.302V310.067H940.032V306.887ZM959.412 304.907H963.192V321.827H959.412V304.907ZM944.112 322.847H963.192V332.687H959.232V326.027H944.112V322.847ZM970.09 319.217H989.62V322.337H970.09V319.217ZM967.15 326.267H992.29V329.507H967.15V326.267ZM970.09 306.917H989.38V310.127H974.14V320.087H970.09V306.917ZM972.91 313.037H988.75V316.127H972.91V313.037ZM1003.48 322.787H1005.73C1010.65 322.787 1013.86 322.667 1017.46 322.007L1017.85 325.217C1014.13 325.907 1010.8 326.057 1005.73 326.057H1003.48V322.787ZM1003.48 307.367H1016.05V310.547H1007.47V324.017H1003.48V307.367ZM1021.51 304.907H1025.5V332.777H1021.51V304.907ZM1014.7 314.477H1023.19V317.717H1014.7V314.477ZM1029.79 326.237H1054.93V329.477H1029.79V326.237ZM1040.32 320.297H1044.31V327.017H1040.32V320.297ZM1032.43 306.677H1036.39V310.937H1048.24V306.677H1052.2V321.137H1032.43V306.677ZM1036.39 314.057V317.957H1048.24V314.057H1036.39ZM1076.49 304.907H1080.51V332.687H1076.49V304.907ZM1068.3 307.787H1072.26C1072.26 316.277 1069.38 323.237 1059.51 328.007L1057.44 324.827C1065.42 320.987 1068.3 315.947 1068.3 308.507V307.787ZM1058.91 307.787H1070.19V310.937H1058.91V307.787Z" fill="white"/>
</g>
<defs>
<filter id="filter0_d_57_234" x="0" y="0.516602" width="1230" height="502" filterUnits="userSpaceOnUse" color-interpolation-filters="sRGB">
<feFlood flood-opacity="0" result="BackgroundImageFix"/>
<feColorMatrix in="SourceAlpha" type="matrix" values="0 0 0 0 0 0 0 0 0 0 0 0 0 0 0 0 0 0 127 0" result="hardAlpha"/>
<feOffset dx="4" dy="4"/>
<feGaussianBlur stdDeviation="7.5"/>
<feComposite in2="hardAlpha" operator="out"/>
<feColorMatrix type="matrix" values="0 0 0 0 0 0 0 0 0 0 0 0 0 0 0 0 0 0 0.25 0"/>
<feBlend mode="normal" in2="BackgroundImageFix" result="effect1_dropShadow_57_234"/>
<feBlend mode="normal" in="SourceGraphic" in2="effect1_dropShadow_57_234" result="shape"/>
</filter>
<clipPath id="clip0_57_234">
<rect width="618" height="249" fill="white" transform="translate(88 105.517)"/>
</clipPath>
</defs>
</svg>
