<?xml version="1.0" encoding="UTF-8"?>
<svg id="_레이어_2" data-name="레이어 2" xmlns="http://www.w3.org/2000/svg" viewBox="0 0 434.54 397.28">
  <defs>
    <style>
      .cls-1, .cls-2 {
        fill: #fff;
      }

      .cls-3 {
        fill: #fdcdaa;
      }

      .cls-4 {
        fill: #f15a28;
      }

      .cls-5 {
        stroke-width: 5px;
      }

      .cls-5, .cls-6, .cls-7, .cls-8, .cls-9, .cls-10, .cls-2 {
        stroke-miterlimit: 10;
      }

      .cls-5, .cls-6, .cls-8, .cls-10 {
        stroke-linecap: round;
      }

      .cls-5, .cls-6, .cls-9, .cls-10 {
        fill: none;
      }

      .cls-5, .cls-2 {
        stroke: #2f2004;
      }

      .cls-6, .cls-9 {
        stroke: #fff;
      }

      .cls-7, .cls-8 {
        fill: #ffc20c;
      }

      .cls-7, .cls-8, .cls-10 {
        stroke: #2e2310;
      }

      .cls-7, .cls-2 {
        stroke-width: 8px;
      }

      .cls-8, .cls-10 {
        stroke-width: 6px;
      }

      .cls-9 {
        stroke-width: .25px;
      }

      .cls-11 {
        fill: #2f2004;
      }

      .cls-12 {
        fill: #fdf3ea;
      }
    </style>
  </defs>
  <g id="Layer_1" data-name="Layer 1">
    <g>
      <g>
        <path class="cls-7" d="m247.82,376.42c-86.64-2.08-153.4-54.68-168.68-149.88-7.17-44.64,16.11-111.95,44.09-143.24,32.7-36.57,71.45-61.3,124.59-61.3"/>
        <path class="cls-7" d="m247.87,376.39c86.64-2.08,153.4-54.68,168.68-149.89,7.17-44.64-16.11-111.95-44.09-143.24-32.7-36.57-71.45-61.3-124.59-61.3"/>
      </g>
      <path class="cls-10" d="m170.53,10.97c1.54-.92,28.07-16.15,55.46-1.94,18.94,9.83,30.77,29.83,30.5,51.53"/>
      <path class="cls-6" d="m318.05,154.34s-.14.56-.09.94c.03.28.11.65.15.79.03.13.17.42.33.67.26.42.45.65.45.65"/>
      <g>
        <path class="cls-2" d="m247.64,393.28c-32.31,0-65.4-6.59-94.4-22.88-47.23-26.53-65.94-63.1-77.93-95.41-12.87-34.7-10-86.46-9.91-88.63.13-3.32,2.07-6.31,5.05-7.79,2.98-1.48,6.53-1.21,9.26.7,21.26,14.9,45.02,31.29,54.94,37.76l49.66-39.34c3.18-2.52,7.66-2.62,10.95-.26l53.96,38.77,51.45-38.19c3.25-2.4,7.68-2.39,10.91.05l50.49,38.19,52.4-37.25c2.59-1.84,5.95-2.2,8.87-.94,2.91,1.25,4.96,3.94,5.41,7.08.4,2.83,9.44,70-16.92,119.56-29.85,56.11-96.13,88.57-164.17,88.57Z"/>
        <g>
          <g>
            <line class="cls-10" x1="347.87" y1="206.69" x2="338.09" y2="231.57"/>
            <line class="cls-10" x1="338.25" y1="232.57" x2="342.58" y2="260.5"/>
            <line class="cls-10" x1="339.19" y1="238.43" x2="324.22" y2="256.82"/>
          </g>
          <line class="cls-10" x1="342.83" y1="261.44" x2="334.24" y2="269.44"/>
        </g>
        <g>
          <line class="cls-5" x1="114.88" y1="341.23" x2="177.4" y2="334.6"/>
          <line class="cls-5" x1="182.06" y1="281.43" x2="177.4" y2="334.6"/>
          <line class="cls-5" x1="200.6" y1="300.44" x2="182.54" y2="304.96"/>
        </g>
        <g>
          <path class="cls-3" d="m0,346.65c1.19,1.43,2.73,2.42,0,0h0Z"/>
          <path class="cls-3" d="m195.9,315.73c-2.86-.83-5.57-2-8.4-2.9,5.63,1.79,1.38.51-.01-.19-1.32-.66-2.63-1.36-3.91-2.1-2.36-1.35-4.64-2.82-6.86-4.39-.1-.07-.19-.14-.29-.21-1.06-.94-2.16-1.83-3.21-2.79-2-1.84-3.92-3.77-5.73-5.8-.91-1.02-1.85-2.49-2.87-3.39.15.13.27.24.4.36-.15-.18-.3-.37-.43-.55-1.68-2.44-3.23-4.97-4.63-7.57-.58-1.09-1.14-2.19-1.67-3.3-.11-.23-.2-.42-.29-.59-.02-.05-.04-.1-.06-.16-4.23-10.94-15.31-19.72-27.68-15.71-10.65,3.45-20.26,15.92-15.71,27.68,12.11,31.31,36.86,55.52,69.39,65.02,11.29,3.3,25.01-3.99,27.68-15.71,2.74-12.05-3.62-24.14-15.71-27.68Z"/>
        </g>
      </g>
      <path class="cls-12" d="m177.4,334.6l-2.45,2.45c-2.28,4.52-8.01,5.59-15.19,3.43,0,0-8.27-6.08-10.3-8.11s-9.92-12.14-9.92-12.14c-4.52-7.79-6.28-13.74,1.14-17.54l2.14-2.14c4.57-4.57,11.38-2.08,15.95,2.5,0,0,7.74,7.76,9.77,9.79s7.79,7.11,7.79,7.11c4.57,4.57,4.01,9.48,1.07,14.65Z"/>
      <g>
        <g>
          <ellipse class="cls-11" cx="295.02" cy="129.78" rx="9.86" ry="17.1" transform="translate(50.38 339.63) rotate(-64.37)"/>
          <ellipse class="cls-11" cx="200.71" cy="129.78" rx="17.1" ry="9.86" transform="translate(-36.39 99.6) rotate(-25.63)"/>
          <g>
            <ellipse class="cls-4" cx="247.85" cy="150.29" rx="11.45" ry="6.34"/>
            <ellipse class="cls-4" cx="247.89" cy="156.62" rx="11.45" ry="6.34"/>
          </g>
          <path class="cls-1" d="m319.21,139.44c-.16,3.1-3.6,5.45-7.69,5.25-4.09-.2-7.29-2.88-7.13-5.99s3.6-5.45,7.69-5.25c4.09.2,7.29,2.88,7.13,5.99Z"/>
          <path class="cls-1" d="m318,136.9c.67,0,1.22,1,1.22,2.24,0,3.25-.85,5-1.47,6.28-.53,1.1-.85,1.76-.85,3.3s.32,2.2.85,3.3c.62,1.28,1.47,3.03,1.47,6.28s-.85,5-1.47,6.28c-.53,1.09-.85,1.75-.85,3.29,0,1.24-.54,2.24-1.22,2.24s-1.22-1-1.22-2.24c0-3.25.85-5,1.47-6.28.53-1.09.85-1.76.85-3.29s-.32-2.2-.85-3.3c-.62-1.28-1.47-3.03-1.47-6.28s.85-5,1.47-6.28c.53-1.1.85-1.76.85-3.3,0-1.24.54-2.24,1.22-2.24Z"/>
          <path class="cls-1" d="m316.67,164.03c1.64-.33,3.32,1.15,3.75,3.31.44,2.16-.54,4.18-2.17,4.51-1.64.33-3.32-1.15-3.75-3.31-.44-2.16.54-4.18,2.17-4.51Z"/>
          <g>
            <path class="cls-1" d="m185.55,135.65c-3.12-.19-5.75,1.97-5.87,4.83-.07,1.75.81,3.35,2.23,4.37,0,.02-.02.03-.02.05.01.21.03.41.04.62,0,.06.02.11.05.15-.74.43-1.35,1.5-1.51,2.84-.23,1.87.49,3.54,1.6,3.73,1.11.19,2.2-1.17,2.43-3.04.08-.62.04-1.22-.07-1.75,0,0,0,0,0,0,0,0,0,0,0,0-.02-.1-.04-.2-.07-.29-.05-.24-.09-.49-.04-.73.03-.14.08-.26.17-.35.03-.03.09-.07.12-.08.01,0,.03,0,.04-.01,0,0,.03,0,.01,0,.02,0,.04,0,.05,0,0,0,.05,0,.02,0,0,0,.02,0,.03,0,.05,0,.11,0,.16.01.01,0,.03,0,.04-.01.05,0,.1.01.15.02,3.12.19,5.75-1.97,5.87-4.83.12-2.85-2.32-5.32-5.44-5.51Z"/>
            <path class="cls-9" d="m181.43,143.43s.37.61.46,1.22c.08.51,0,1.13,0,1.26.02.32-.35,1.19-.35,1.19"/>
          </g>
        </g>
        <path class="cls-8" d="m203.35,98.35c18.92.31,20.45-9.1,20.45-9.1"/>
      </g>
    </g>
  </g>
</svg>