<?xml version="1.0" encoding="UTF-8"?>
<svg id="_레이어_2" data-name="레이어 2" xmlns="http://www.w3.org/2000/svg" viewBox="0 0 373.3 424.18">
  <defs>
    <style>
      .cls-1 {
        fill: #f47a35;
      }

      .cls-2 {
        fill: #f15a28;
      }

      .cls-3 {
        fill: #ffc20c;
      }

      .cls-3, .cls-4 {
        stroke: #2e2310;
      }

      .cls-3, .cls-4, .cls-5 {
        stroke-miterlimit: 10;
      }

      .cls-3, .cls-5 {
        stroke-width: 8px;
      }

      .cls-6 {
        fill: #2f2004;
      }

      .cls-4 {
        fill: none;
        stroke-linecap: round;
        stroke-width: 6px;
      }

      .cls-5 {
        fill: #fff;
        stroke: #2f2004;
      }
    </style>
  </defs>
  <g id="Layer_1" data-name="Layer 1">
    <g>
      <g>
        <path class="cls-3" d="m186.62,403.29c-86.64-2.08-153.4-54.68-168.68-149.88-7.17-44.64,16.11-111.95,44.09-143.24,32.7-36.57,71.45-61.3,124.59-61.3"/>
        <path class="cls-3" d="m186.62,403.29c86.64-2.08,153.4-54.68,168.68-149.88,7.17-44.64-16.11-111.95-44.09-143.24-32.7-36.57-71.45-61.3-124.59-61.3"/>
      </g>
      <path class="cls-5" d="m186.4,420.18c-32.31,0-65-7.31-94.4-22.88-48.99-25.95-66.88-62.79-77.93-95.41-11.86-35.06-10-86.46-9.91-88.63.13-3.32,2.07-6.31,5.05-7.79,2.98-1.48,6.53-1.21,9.26.7,21.26,14.9,45.02,31.29,54.94,37.76l49.66-39.34c3.18-2.52,7.66-2.62,10.95-.26l53.96,38.77,51.45-38.19c3.25-2.4,7.68-2.39,10.91.05l50.49,38.19,52.4-37.25c2.59-1.84,5.95-2.2,8.87-.94,2.91,1.25,4.96,3.94,5.41,7.08.4,2.83,9.44,70-16.92,119.56-29.85,56.11-96.13,88.57-164.17,88.57Z"/>
      <ellipse class="cls-6" cx="233.77" cy="148.69" rx="9.86" ry="17.1" transform="translate(-1.41 295.13) rotate(-64.37)"/>
      <ellipse class="cls-6" cx="139.47" cy="148.69" rx="17.1" ry="9.86" transform="translate(-50.6 74.97) rotate(-25.63)"/>
      <g>
        <ellipse class="cls-2" cx="186.61" cy="169.19" rx="11.45" ry="6.34"/>
        <ellipse class="cls-2" cx="186.65" cy="175.53" rx="11.45" ry="6.34"/>
      </g>
      <path class="cls-4" d="m190.49,94.74c-1.12-1.41-19.7-25.7-9.22-54.72,7.25-20.07,25.52-34.43,47.07-37.02"/>
      <g>
        <ellipse class="cls-1" cx="105.56" cy="169.19" rx="19.11" ry="9.62"/>
        <ellipse class="cls-1" cx="267.74" cy="169.19" rx="19.11" ry="9.62"/>
      </g>
    </g>
  </g>
</svg>