<?xml version="1.0" encoding="UTF-8"?>
<svg id="_레이어_2" data-name="레이어 2" xmlns="http://www.w3.org/2000/svg" viewBox="0 0 350.13 359.57">
  <defs>
    <style>
      .cls-1 {
        fill: #f47a35;
      }

      .cls-2 {
        fill: #f26521;
      }

      .cls-3 {
        fill: #221e1f;
      }

      .cls-4 {
        fill: #ffc20c;
        stroke-width: 8px;
      }

      .cls-4, .cls-5 {
        stroke: #2e2310;
        stroke-miterlimit: 10;
      }

      .cls-6 {
        fill: #2f2004;
      }

      .cls-5 {
        fill: none;
        stroke-linecap: round;
        stroke-width: 6px;
      }
    </style>
  </defs>
  <g id="Layer_1" data-name="Layer 1">
    <g>
      <g>
        <path class="cls-4" d="m4.05,341.76c.14,4.78.55,9.41,1.26,13.81h337.36c3.84-23.95-1.07-54.41-10.77-82.34-8.39-24.14-20.35-46.39-33.32-60.89-32.7-36.57-71.45-61.3-124.59-61.3"/>
        <path class="cls-4" d="m173.99,151.04c-53.14,0-91.89,24.73-124.59,61.3-12.97,14.5-24.93,36.75-33.32,60.89-7.92,22.8-12.65,47.29-12.03,68.54"/>
      </g>
      <ellipse class="cls-6" cx="221.14" cy="228.55" rx="9.86" ry="17.1" transform="translate(-80.58 329.06) rotate(-64.37)"/>
      <ellipse class="cls-6" cx="126.84" cy="228.55" rx="17.1" ry="9.86" transform="translate(-86.39 77.36) rotate(-25.63)"/>
      <g>
        <ellipse class="cls-2" cx="173.98" cy="249.05" rx="11.45" ry="6.34"/>
        <ellipse class="cls-2" cx="174.02" cy="255.39" rx="11.45" ry="6.34"/>
      </g>
      <path class="cls-5" d="m177.86,196.91c-1.12-1.41-19.7-25.7-9.22-54.72,7.25-20.07,25.52-34.43,47.07-37.02"/>
      <g>
        <ellipse class="cls-1" cx="92.93" cy="249.05" rx="19.11" ry="9.62"/>
        <ellipse class="cls-1" cx="255.11" cy="249.05" rx="19.11" ry="9.62"/>
      </g>
      <g>
        <path class="cls-3" d="m26.31,224.66c-1.03.65-2.08.98-3.15.99-1.07,0-2.09-.31-3.06-.95-.72-.48-1.48-1.24-2.28-2.29l-14.17-19.57c-1.29-1.8-1.99-3.64-2.1-5.51-.1-1.87.38-3.6,1.44-5.21,1.07-1.62,2.49-2.74,4.25-3.37,1.76-.63,3.73-.7,5.89-.21l23.54,5.46c1.33.36,2.33.77,2.99,1.21.97.64,1.66,1.46,2.06,2.45.41.99.51,2.09.32,3.28-.14.83-.42,1.59-.87,2.25-.63.95-1.52,1.62-2.68,2.02-1.16.4-2.42.42-3.78.07l-1.72-.48-6.61,9.96,1.08,1.44c.84,1.08,1.31,2.23,1.41,3.46s-.17,2.33-.82,3.31c-.44.67-1.02,1.23-1.74,1.67Zm-6.65-18.3l2.94-4.43-9.71-3.24,6.77,7.67Z"/>
        <path class="cls-3" d="m48.55,194.18c-1,1.13-2.25,1.74-3.77,1.84-1.51.1-2.86-.37-4.02-1.4l-12.91-11.41c-1.18-1.04-1.83-2.34-1.96-3.88-.12-1.54.32-2.88,1.31-4.01l6.03-1.45-.19-.17-.09-.46-.09-.88c-.2-1.91.18-3.44,1.13-4.59.35-.4.7-.69,1.06-.9.82-.56,1.72-.85,2.7-.87.98-.03,1.87.2,2.68.69.46.33.8.58,1,.75.91.8,1.42,1.79,1.55,2.97.12,1.18-.17,2.63-.86,4.34-.07.18-.12.33-.17.46-.05.13-.11.31-.18.54-.29.83-.48,1.56-.56,2.18-.08.62-.05,1.17.1,1.66.15.48.42.97.82,1.46.4.49,1,1.09,1.81,1.81l3.75,3.31c.81.71,1.39,1.55,1.75,2.51s.46,1.93.31,2.9c-.15.98-.55,1.84-1.18,2.58Z"/>
        <path class="cls-3" d="m39.08,158.4c-1.61-.08-3.01-.75-4.19-2.01-1.12-1.2-1.69-2.65-1.7-4.34.02-.8.18-1.54.48-2.23s.72-1.29,1.27-1.81c1.16-1.09,2.57-1.57,4.24-1.45,1.62.12,3,.78,4.14,1.99,1.17,1.25,1.74,2.67,1.72,4.26-.02,1.59-.63,2.94-1.81,4.05s-2.57,1.62-4.16,1.54Zm24.52,20.18c-1.1,1.03-2.42,1.51-3.95,1.43-1.53-.08-2.84-.7-3.93-1.86l-11.75-12.53c-.72-.76-1.19-1.63-1.43-2.6s-.22-1.93.04-2.87c.27-.95.77-1.76,1.51-2.45.74-.67,1.58-1.1,2.54-1.29.96-.19,1.91-.14,2.86.15s1.78.83,2.51,1.6l11.68,12.46c1.1,1.17,1.64,2.54,1.62,4.08-.02,1.55-.59,2.84-1.7,3.88Z"/>
        <path class="cls-3" d="m69.72,170.08c-1.61-.34-2.89-1.17-3.86-2.48l-14.76-20.05c-1.16-1.58-1.67-3.15-1.51-4.73.15-1.58.9-2.86,2.25-3.85l8.52-6.28c2.13-1.57,4.38-2.5,6.74-2.78,2.36-.28,4.59.05,6.71,1,2.11.95,3.9,2.42,5.37,4.41,2.03,2.89,2.88,5.9,2.56,9.03-.33,3.13-1.8,5.94-4.43,8.43-.53.52-1.09.99-1.65,1.4l-3.58,2.64,3.03,4.11c1.04,1.42,1.44,2.92,1.19,4.5-.21,1.53-.94,2.76-2.19,3.68-1.29.95-2.75,1.27-4.37.96Zm-3.77-21.55l3.66-2.7c.61-.45.96-1.05,1.06-1.8.11-.8-.05-1.49-.49-2.08-.44-.6-1.04-.97-1.79-1.09-.79-.1-1.48.07-2.08.51l-3.66,2.7,3.29,4.47Z"/>
        <path class="cls-3" d="m89.44,125.03c.83-.67,1.5-1.14,2.01-1.4,2.17-1.12,4.35-1.32,6.54-.6l.07.13,2.89-4.32c.22-.41.57-.74,1.04-.98.7-.36,1.42-.39,2.18-.09,1.84.62,3.22,1.84,4.16,3.65l7.93,15.35c.77,1.49.94,2.94.52,4.36s-1.33,2.48-2.71,3.19l-5.21-.28.11.22c-.58,2.13-1.99,3.78-4.25,4.94-.74.38-1.62.72-2.64,1.03-1.46.42-3.05.51-4.77.26-1.71-.24-3.41-.85-5.08-1.82-1.19-.77-2.26-1.68-3.2-2.74-.95-1.06-1.83-2.38-2.64-3.96-.95-2.09-1.45-4.21-1.49-6.38s.34-4.17,1.14-6.01c.8-1.84,1.94-3.36,3.42-4.55Zm6.95,12.58c.53,1.03,1.29,1.79,2.28,2.27,1.06.48,2.07.47,3.02-.02.57-.29,1.03-.73,1.38-1.31.35-.58.52-1.25.5-2.01.03-.58-.05-1.09-.22-1.54-.15-.35-.38-.83-.69-1.44-1-1.41-2.2-2.09-3.6-2.04-.61.01-1.12.13-1.55.35-.78.4-1.31,1.05-1.57,1.93-.27.88-.23,1.86.11,2.94.06.16.12.29.17.4s.11.27.17.46Z"/>
        <path class="cls-3" d="m114.73,113.61c.63-.61,1.33-1.04,2.11-1.3.68-.23,1.4-.29,2.13-.18.74.11,1.47.4,2.21.88.74.48,1.42,1.13,2.02,1.94l5.13,6.72-.08-8.23c-.03-.74.05-1.57.22-2.48.17-.86.55-1.6,1.14-2.22.59-.62,1.29-1.07,2.09-1.33,1.55-.51,3.08-.33,4.58.53,1.16.65,1.96,1.66,2.42,3.03.27.82.36,1.68.27,2.58l-2.48,31.2c-.25,2.98-1.42,4.82-3.53,5.51-.44.15-1.02.21-1.73.2-1.23,0-2.29-.31-3.19-.95s-1.52-1.5-1.88-2.59c-.24-.73-.31-1.52-.21-2.4l1.06-8.84-12.68-14.43c-.43-.49-.76-1.08-.99-1.77-.34-1.04-.39-2.09-.16-3.16.24-1.07.75-1.97,1.54-2.72Z"/>
      </g>
      <text/>
    </g>
  </g>
</svg>