<svg width="810" height="345" viewBox="0 0 810 345" fill="none" xmlns="http://www.w3.org/2000/svg">
<g filter="url(#filter0_bd_164_2228)">
<rect x="11" y="11" width="780" height="315" rx="30" fill="white" shape-rendering="crispEdges"/>
<path d="M89.792 96.472C99.392 96.472 105.536 99.64 105.536 104.92C105.536 110.104 99.392 113.272 89.792 113.272C80.192 113.272 74.048 110.104 74.048 104.92C74.048 99.64 80.192 96.472 89.792 96.472ZM89.792 101.272C83.792 101.272 80.384 102.52 80.384 104.92C80.384 107.272 83.792 108.472 89.792 108.472C95.792 108.472 99.2 107.272 99.2 104.92C99.2 102.52 95.792 101.272 89.792 101.272ZM74.528 70.792H102.656V75.832H74.528V70.792ZM70.016 88.648H110.048V93.736H70.016V88.648ZM84.848 80.92H91.184V89.944H84.848V80.92ZM98.96 70.792H105.296V74.44C105.296 77.944 105.296 81.736 104.096 86.344L97.76 85.672C98.96 81.112 98.96 77.896 98.96 74.44V70.792ZM124.78 75.832H129.868V80.824C129.868 91.096 125.692 101.128 117.34 104.92L113.74 99.88C121.18 96.568 124.78 88.36 124.78 80.824V75.832ZM126.22 75.832H131.26V80.824C131.26 88.024 134.812 95.704 142.252 98.776L138.796 103.816C130.348 100.168 126.22 90.712 126.22 80.824V75.832ZM115.516 73.096H140.428V78.328H115.516V73.096ZM144.556 68.824H150.988V113.272H144.556V68.824ZM163.177 70.6H191.353V75.64H163.177V70.6ZM158.281 84.472H198.505V89.512H158.281V84.472ZM187.513 70.6H193.801V73.624C193.801 76.792 193.801 80.824 192.649 85.96L186.361 85.384C187.513 80.344 187.513 76.744 187.513 73.624V70.6ZM162.745 92.536H193.657V105.064H169.177V109.576H162.793V100.36H187.321V97.48H162.745V92.536ZM162.793 108.04H194.809V112.984H162.793V108.04ZM202.437 103.192H242.661V108.376H202.437V103.192ZM219.285 94.792H225.669V105.304H219.285V94.792ZM206.949 71.704H238.149V86.488H213.381V93.976H207.045V81.496H231.813V76.744H206.949V71.704ZM207.045 91.432H239.157V96.568H207.045V91.432ZM257.702 89.128H297.926V94.312H257.702V89.128ZM262.55 81.016H293.366V86.056H262.55V81.016ZM262.55 70.024H293.126V75.112H268.886V83.512H262.55V70.024ZM277.67 96.952C287.27 96.952 293.078 99.88 293.078 105.112C293.078 110.344 287.27 113.272 277.67 113.272C268.07 113.272 262.214 110.344 262.214 105.112C262.214 99.88 268.07 96.952 277.67 96.952ZM277.67 101.752C271.718 101.752 268.694 102.856 268.694 105.112C268.694 107.416 271.718 108.424 277.67 108.424C283.622 108.424 286.646 107.416 286.646 105.112C286.646 102.856 283.622 101.752 277.67 101.752ZM301.811 92.632H342.083V97.72H301.811V92.632ZM306.755 69.688H337.187V81.736H313.139V86.536H306.803V77.224H330.899V74.536H306.755V69.688ZM306.803 84.616H338.051V89.464H306.803V84.616ZM318.755 86.968H325.139V95.416H318.755V86.968ZM306.275 100.216H337.475V113.128H331.091V105.256H306.275V100.216ZM385.588 68.824H391.924V113.272H385.588V68.824ZM390.484 86.152H398.356V91.48H390.484V86.152ZM356.884 75.4H382.756V80.488H356.884V75.4ZM369.892 82.984C376.372 82.984 381.172 87.4 381.172 93.592C381.172 99.784 376.372 104.2 369.892 104.2C363.412 104.2 358.612 99.784 358.612 93.592C358.612 87.4 363.412 82.984 369.892 82.984ZM369.892 88.168C366.868 88.168 364.708 90.184 364.708 93.592C364.708 97 366.868 99.016 369.892 99.016C372.916 99.016 375.076 97 375.076 93.592C375.076 90.184 372.916 88.168 369.892 88.168ZM366.676 69.544H373.06V77.32H366.676V69.544ZM412.081 72.232H417.265V78.712C417.265 90.136 413.329 100.456 404.497 104.536L400.705 99.256C408.433 95.896 412.081 87.352 412.081 78.712V72.232ZM413.329 72.232H418.513V78.712C418.513 86.92 422.017 95.08 429.601 98.344L425.857 103.48C417.265 99.544 413.329 89.656 413.329 78.712V72.232ZM431.713 68.776H438.145V113.368H431.713V68.776ZM458.445 71.848H464.877C464.877 83.08 459.885 90.664 448.509 95.368L445.389 90.712C454.653 87.064 458.445 81.688 458.445 74.152V71.848ZM447.693 71.848H460.941V76.984H447.693V71.848ZM477.213 68.824H483.261V94.072H477.213V68.824ZM459.693 80.392H469.101V85.432H459.693V80.392ZM468.189 69.688H474.141V93.496H468.189V69.688ZM455.661 95.464H460.413V97.432C460.413 104.2 457.437 110.392 450.477 112.936L447.357 108.28C453.165 106.264 455.661 101.8 455.661 97.432V95.464ZM457.245 95.464H461.805V97.432C461.805 101.8 463.965 106.36 469.437 108.664L466.845 113.32C459.789 110.68 457.245 104.008 457.245 97.432V95.464ZM471.789 95.464H476.349V97.432C476.349 103.624 473.757 110.584 466.845 113.32L464.157 108.664C469.629 106.168 471.789 101.368 471.789 97.432V95.464ZM473.277 95.464H478.077V97.432C478.077 102.088 480.525 106.456 486.333 108.28L483.261 112.936C476.205 110.488 473.277 104.488 473.277 97.432V95.464ZM501.737 71.896C508.361 71.896 513.209 78.04 513.209 87.736C513.209 97.528 508.361 103.672 501.737 103.672C495.065 103.672 490.265 97.528 490.265 87.736C490.265 78.04 495.065 71.896 501.737 71.896ZM501.737 77.704C498.521 77.704 496.361 81.208 496.361 87.736C496.361 94.36 498.521 97.912 501.737 97.912C505.001 97.912 507.113 94.36 507.113 87.736C507.113 81.208 505.001 77.704 501.737 77.704ZM520.505 68.776H526.841V113.368H520.505V68.776ZM511.337 84.808H523.193V89.944H511.337V84.808ZM542.581 91.384H548.917V103.864H542.581V91.384ZM558.709 91.384H565.093V103.864H558.709V91.384ZM533.749 102.952H573.973V108.136H533.749V102.952ZM553.813 70.984C563.365 70.984 570.421 75.688 570.421 82.936C570.421 90.184 563.365 94.84 553.813 94.84C544.213 94.84 537.205 90.184 537.205 82.936C537.205 75.688 544.213 70.984 553.813 70.984ZM553.813 75.976C547.621 75.976 543.493 78.52 543.493 82.936C543.493 87.304 547.621 89.896 553.813 89.896C560.005 89.896 564.133 87.304 564.133 82.936C564.133 78.52 560.005 75.976 553.813 75.976ZM585.074 98.5341V97.9545C585.085 95.9659 585.261 94.3807 585.602 93.1989C585.955 92.017 586.466 91.0625 587.136 90.3352C587.807 89.608 588.614 88.9489 589.557 88.358C590.261 87.9034 590.892 87.4318 591.449 86.9432C592.006 86.4545 592.449 85.9148 592.778 85.3239C593.108 84.7216 593.273 84.0511 593.273 83.3125C593.273 82.5284 593.085 81.8409 592.71 81.25C592.335 80.6591 591.83 80.2045 591.193 79.8864C590.568 79.5682 589.875 79.4091 589.114 79.4091C588.375 79.4091 587.676 79.5739 587.017 79.9034C586.358 80.2216 585.818 80.6989 585.398 81.3352C584.977 81.9602 584.75 82.7386 584.716 83.6705H577.761C577.818 81.3977 578.364 79.5227 579.398 78.0455C580.432 76.5568 581.801 75.4489 583.506 74.7216C585.21 73.983 587.091 73.6136 589.148 73.6136C591.409 73.6136 593.409 73.9886 595.148 74.7386C596.886 75.4773 598.25 76.5511 599.239 77.9602C600.227 79.3693 600.722 81.0682 600.722 83.0568C600.722 84.3864 600.5 85.5682 600.057 86.6023C599.625 87.625 599.017 88.5341 598.233 89.3295C597.449 90.1136 596.523 90.8239 595.455 91.4602C594.557 91.9943 593.818 92.5511 593.239 93.1307C592.67 93.7102 592.244 94.3807 591.96 95.142C591.688 95.9034 591.545 96.8409 591.534 97.9545V98.5341H585.074ZM588.449 109.443C587.312 109.443 586.341 109.045 585.534 108.25C584.739 107.443 584.347 106.477 584.358 105.352C584.347 104.239 584.739 103.284 585.534 102.489C586.341 101.693 587.312 101.295 588.449 101.295C589.528 101.295 590.477 101.693 591.295 102.489C592.114 103.284 592.528 104.239 592.54 105.352C592.528 106.102 592.33 106.79 591.943 107.415C591.568 108.028 591.074 108.523 590.46 108.898C589.847 109.261 589.176 109.443 588.449 109.443Z" fill="black"/>
<path d="M694.706 307.579C664.743 306.86 641.655 288.669 636.371 255.746C633.891 240.308 641.942 217.03 651.619 206.209C662.927 193.562 676.328 185.01 694.706 185.01" fill="#FFC20C"/>
<path d="M694.706 307.579C664.743 306.86 641.655 288.669 636.371 255.746C633.891 240.308 641.942 217.03 651.619 206.209C662.927 193.562 676.328 185.01 694.706 185.01" stroke="#2E2310" stroke-width="3" stroke-miterlimit="10"/>
<path d="M694.706 307.579C724.669 306.86 747.756 288.669 753.041 255.746C755.52 240.308 747.469 217.03 737.793 206.209C726.484 193.562 713.083 185.01 694.706 185.01" fill="#FFC20C"/>
<path d="M694.706 307.579C724.669 306.86 747.756 288.669 753.041 255.746C755.52 240.308 747.469 217.03 737.793 206.209C726.484 193.562 713.083 185.01 694.706 185.01" stroke="#2E2310" stroke-width="3" stroke-miterlimit="10"/>
<path d="M694.626 313.424C683.452 313.424 672.147 310.896 661.98 305.511C645.037 296.537 638.85 283.797 635.029 272.516C630.927 260.391 631.571 242.615 631.602 241.865C631.647 240.716 632.318 239.682 633.348 239.171C634.379 238.659 635.607 238.752 636.551 239.413C643.903 244.565 652.12 250.234 655.551 252.471L672.725 238.866C673.824 237.995 675.374 237.96 676.511 238.776L695.173 252.184L712.965 238.977C714.089 238.147 715.621 238.15 716.739 238.994L734.2 252.201L752.321 239.319C753.217 238.683 754.379 238.558 755.389 238.994C756.395 239.426 757.104 240.357 757.26 241.443C757.398 242.421 760.524 265.651 751.408 282.79C741.085 302.195 718.163 313.42 694.633 313.42L694.626 313.424Z" fill="white" stroke="#2F2004" stroke-width="3" stroke-miterlimit="10"/>
<path d="M702.95 228.447C703.765 226.749 702.038 224.227 699.094 222.815C696.149 221.402 693.101 221.633 692.287 223.331C691.472 225.029 693.199 227.551 696.144 228.963C699.088 230.376 702.136 230.145 702.95 228.447Z" fill="#2F2004"/>
<path d="M666.495 228.986C669.439 227.573 671.166 225.052 670.351 223.354C669.537 221.656 666.489 221.425 663.545 222.837C660.6 224.25 658.873 226.772 659.688 228.47C660.502 230.168 663.55 230.399 666.495 228.986Z" fill="#2F2004"/>
<path d="M681.319 235.18C683.505 235.18 685.278 234.198 685.278 232.987C685.278 231.777 683.505 230.795 681.319 230.795C679.132 230.795 677.359 231.777 677.359 232.987C677.359 234.198 679.132 235.18 681.319 235.18Z" fill="#F15A28"/>
<path d="M681.332 237.372C683.519 237.372 685.292 236.391 685.292 235.18C685.292 233.969 683.519 232.987 681.332 232.987C679.145 232.987 677.373 233.969 677.373 235.18C677.373 236.391 679.145 237.372 681.332 237.372Z" fill="#F15A28"/>
<path d="M685.534 204.366C685.147 203.879 678.721 195.478 682.346 185.442C684.853 178.501 691.171 173.535 698.624 172.64" stroke="#2E2310" stroke-width="3" stroke-miterlimit="10" stroke-linecap="round"/>
<path d="M653.292 236.314C656.942 236.314 659.901 234.824 659.901 232.987C659.901 231.15 656.942 229.66 653.292 229.66C649.642 229.66 646.683 231.15 646.683 232.987C646.683 234.824 649.642 236.314 653.292 236.314Z" fill="#F47A35"/>
<path d="M709.376 236.314C713.026 236.314 715.985 234.824 715.985 232.987C715.985 231.15 713.026 229.66 709.376 229.66C705.726 229.66 702.767 231.15 702.767 232.987C702.767 234.824 705.726 236.314 709.376 236.314Z" fill="#F47A35"/>
<path d="M719.554 231.884C721.523 231.884 723.119 230.874 723.119 229.629C723.119 228.384 721.523 227.374 719.554 227.374C717.585 227.374 715.988 228.384 715.988 229.629C715.988 230.874 717.585 231.884 719.554 231.884Z" fill="#2E2310" stroke="#2F2004" stroke-width="3" stroke-miterlimit="10"/>
<path d="M743.461 214.257C742.749 215.561 734.597 230.013 722.531 229.626C721.055 229.577 719.312 229.3 717.382 228.554" stroke="#2F2004" stroke-width="3" stroke-miterlimit="10"/>
<path d="M643.609 229.598C646.468 229.598 648.786 224.156 648.786 217.442C648.786 210.729 646.468 205.286 643.609 205.286C640.75 205.286 638.432 210.729 638.432 217.442C638.432 224.156 640.75 229.598 643.609 229.598Z" fill="#2E2310" stroke="#2F2004" stroke-width="3" stroke-miterlimit="10"/>
<path d="M745.819 228.463C748.679 228.463 750.997 223.021 750.997 216.307C750.997 209.594 748.679 204.151 745.819 204.151C742.96 204.151 740.642 209.594 740.642 216.307C740.642 223.021 742.96 228.463 745.819 228.463Z" fill="#2E2310" stroke="#2F2004" stroke-width="3" stroke-miterlimit="10"/>
<path d="M643.557 205.635C650.401 187.572 667.748 172.2 694.699 172.504" stroke="#2F2004" stroke-width="3" stroke-miterlimit="10"/>
<path d="M744.886 204.501C734.238 182.585 717.97 172.497 694.699 172.508" stroke="#2F2004" stroke-width="3" stroke-miterlimit="10"/>
<path d="M11 267H791V296C791 312.569 777.569 326 761 326H41C24.4315 326 11 312.569 11 296V267Z" fill="#C49A6B"/>
<path d="M613.92 275.151L550.321 256.11C547.033 255.124 543.36 256.148 542.115 258.392L526.566 286.432C525.321 288.676 526.978 291.294 530.267 292.28L593.865 311.322C597.154 312.307 600.827 311.283 602.072 309.039L617.62 280.999C618.865 278.755 617.209 276.137 613.92 275.151Z" fill="#BCBEC0"/>
<path d="M613.408 274.473L549.938 255.86C546.656 254.899 542.966 255.978 541.693 258.271L525.802 286.93C524.529 289.223 526.158 291.865 529.44 292.826L592.911 311.439C596.192 312.4 599.883 311.321 601.155 309.028L617.046 280.369C618.319 278.076 616.69 275.434 613.408 274.473Z" fill="#E6E7E8"/>
<path d="M595.515 311.269L527.58 294.088C524.066 293.2 521.168 289.776 521.109 286.439L520.334 244.769C520.272 241.432 523.07 239.451 526.58 240.339L594.515 257.52C598.029 258.409 600.927 261.833 600.986 265.17L601.76 306.839C601.823 310.177 599.025 312.158 595.515 311.269Z" fill="#D1D3D4"/>
<path d="M594.173 311.93L525.47 294.953C521.918 294.075 518.986 290.679 518.92 287.369L518.114 246.001C518.048 242.688 520.877 240.716 524.429 241.595L593.132 258.572C596.684 259.45 599.616 262.846 599.682 266.156L600.488 307.524C600.553 310.837 597.725 312.808 594.173 311.93Z" fill="#BCBEC0"/>
<path d="M562.063 276.317C562.39 272.363 559.846 268.926 556.379 268.639C552.913 268.352 549.838 271.325 549.511 275.278C549.184 279.232 551.729 282.669 555.195 282.956C558.661 283.243 561.736 280.27 562.063 276.317Z" fill="#F1F2F2"/>
<g filter="url(#filter1_d_164_2228)">
<rect x="68" y="159" width="328" height="60" rx="10" fill="#FFC20C" shape-rendering="crispEdges"/>
<path d="M170.5 187.58H174.49V191.57H170.5V187.58ZM182.26 174.92H186.25V193.82H182.26V174.92ZM184.84 182.84H189.73V186.11H184.84V182.84ZM164.32 193.28L163.87 190.19C168.85 190.19 175.42 190.16 181.03 189.47L181.33 192.2C175.54 193.19 169.18 193.25 164.32 193.28ZM167.41 194.93H186.25V202.67H182.26V197.99H167.41V194.93ZM164.59 176.93H180.34V179.78H164.59V176.93ZM172.48 180.44C176.56 180.44 179.23 182.03 179.23 184.58C179.23 187.13 176.56 188.72 172.48 188.72C168.37 188.72 165.7 187.13 165.7 184.58C165.7 182.03 168.37 180.44 172.48 180.44ZM172.48 183.05C170.59 183.05 169.48 183.53 169.48 184.58C169.48 185.57 170.59 186.11 172.48 186.11C174.34 186.11 175.45 185.57 175.45 184.58C175.45 183.53 174.34 183.05 172.48 183.05ZM170.5 174.68H174.49V178.22H170.5V174.68ZM210.878 174.92H214.898V194.87H210.878V174.92ZM196.388 199.01H215.588V202.19H196.388V199.01ZM196.388 192.86H200.378V200.3H196.388V192.86ZM199.778 176.66C204.038 176.66 207.308 179.6 207.308 183.71C207.308 187.79 204.038 190.76 199.778 190.76C195.518 190.76 192.218 187.79 192.218 183.71C192.218 179.6 195.518 176.66 199.778 176.66ZM199.778 180.11C197.708 180.11 196.118 181.43 196.118 183.71C196.118 185.96 197.708 187.28 199.778 187.28C201.818 187.28 203.408 185.96 203.408 183.71C203.408 181.43 201.818 180.11 199.778 180.11ZM239.285 174.92H243.065V191.99H239.285V174.92ZM235.895 182H240.335V185.21H235.895V182ZM233.555 175.28H237.275V191.72H233.555V175.28ZM219.275 177.56H232.745V180.65H219.275V177.56ZM226.055 181.49C229.535 181.49 232.055 183.47 232.055 186.35C232.055 189.23 229.535 191.21 226.055 191.21C222.575 191.21 220.055 189.23 220.055 186.35C220.055 183.47 222.575 181.49 226.055 181.49ZM226.055 184.37C224.585 184.37 223.595 185.06 223.595 186.35C223.595 187.64 224.585 188.36 226.055 188.36C227.495 188.36 228.485 187.64 228.485 186.35C228.485 185.06 227.495 184.37 226.055 184.37ZM224.045 175.07H227.975V179.75H224.045V175.07ZM226.085 192.89H229.085V193.43C229.085 197.36 227.165 200.93 222.785 202.34L220.955 199.4C224.525 198.35 226.085 195.86 226.085 193.43V192.89ZM227.135 192.89H229.985V193.43C229.985 195.89 231.305 198.44 234.635 199.67L233.045 202.61C228.725 201.11 227.135 197.24 227.135 193.43V192.89ZM236.105 192.89H238.955V193.43C238.955 197 237.335 201.05 233.045 202.61L231.485 199.67C234.725 198.32 236.105 195.68 236.105 193.43V192.89ZM237.095 192.89H240.065V193.43C240.065 196.01 241.595 198.44 245.225 199.4L243.365 202.34C238.925 200.99 237.095 197.51 237.095 193.43V192.89ZM254.613 176.81C258.753 176.81 261.783 180.65 261.783 186.71C261.783 192.83 258.753 196.67 254.613 196.67C250.443 196.67 247.443 192.83 247.443 186.71C247.443 180.65 250.443 176.81 254.613 176.81ZM254.613 180.44C252.603 180.44 251.253 182.63 251.253 186.71C251.253 190.85 252.603 193.07 254.613 193.07C256.653 193.07 257.973 190.85 257.973 186.71C257.973 182.63 256.653 180.44 254.613 180.44ZM266.343 174.86H270.303V202.73H266.343V174.86ZM260.613 184.88H268.023V188.09H260.613V184.88ZM280.141 188.99H284.101V196.79H280.141V188.99ZM290.221 188.99H294.211V196.79H290.221V188.99ZM274.621 196.22H299.761V199.46H274.621V196.22ZM287.161 176.24C293.131 176.24 297.541 179.18 297.541 183.71C297.541 188.24 293.131 191.15 287.161 191.15C281.161 191.15 276.781 188.24 276.781 183.71C276.781 179.18 281.161 176.24 287.161 176.24ZM287.161 179.36C283.291 179.36 280.711 180.95 280.711 183.71C280.711 186.44 283.291 188.06 287.161 188.06C291.031 188.06 293.611 186.44 293.611 183.71C293.611 180.95 291.031 179.36 287.161 179.36Z" fill="white"/>
</g>
</g>
<defs>
<filter id="filter0_bd_164_2228" x="0" y="0" width="810" height="345" filterUnits="userSpaceOnUse" color-interpolation-filters="sRGB">
<feFlood flood-opacity="0" result="BackgroundImageFix"/>
<feGaussianBlur in="BackgroundImageFix" stdDeviation="2"/>
<feComposite in2="SourceAlpha" operator="in" result="effect1_backgroundBlur_164_2228"/>
<feColorMatrix in="SourceAlpha" type="matrix" values="0 0 0 0 0 0 0 0 0 0 0 0 0 0 0 0 0 0 127 0" result="hardAlpha"/>
<feOffset dx="4" dy="4"/>
<feGaussianBlur stdDeviation="7.5"/>
<feComposite in2="hardAlpha" operator="out"/>
<feColorMatrix type="matrix" values="0 0 0 0 0 0 0 0 0 0 0 0 0 0 0 0 0 0 0.25 0"/>
<feBlend mode="normal" in2="effect1_backgroundBlur_164_2228" result="effect2_dropShadow_164_2228"/>
<feBlend mode="normal" in="SourceGraphic" in2="effect2_dropShadow_164_2228" result="shape"/>
</filter>
<filter id="filter1_d_164_2228" x="57" y="148" width="358" height="90" filterUnits="userSpaceOnUse" color-interpolation-filters="sRGB">
<feFlood flood-opacity="0" result="BackgroundImageFix"/>
<feColorMatrix in="SourceAlpha" type="matrix" values="0 0 0 0 0 0 0 0 0 0 0 0 0 0 0 0 0 0 127 0" result="hardAlpha"/>
<feOffset dx="4" dy="4"/>
<feGaussianBlur stdDeviation="7.5"/>
<feComposite in2="hardAlpha" operator="out"/>
<feColorMatrix type="matrix" values="0 0 0 0 0 0 0 0 0 0 0 0 0 0 0 0 0 0 0.25 0"/>
<feBlend mode="normal" in2="BackgroundImageFix" result="effect1_dropShadow_164_2228"/>
<feBlend mode="normal" in="SourceGraphic" in2="effect1_dropShadow_164_2228" result="shape"/>
</filter>
</defs>
</svg>
