<?xml version="1.0" encoding="UTF-8"?>
<svg id="_레이어_2" data-name="레이어 2" xmlns="http://www.w3.org/2000/svg" viewBox="0 0 347.99 403.82">
  <defs>
    <style>
      .cls-1 {
        fill: #f47a35;
      }

      .cls-2 {
        fill: #f15a28;
      }

      .cls-3 {
        fill: #ed1b23;
        stroke-width: 6px;
      }

      .cls-3, .cls-4 {
        stroke: #2e2310;
        stroke-miterlimit: 10;
      }

      .cls-4 {
        fill: #fff;
        stroke-width: 8px;
      }

      .cls-5 {
        fill: #2f2004;
      }
    </style>
  </defs>
  <g id="Layer_1" data-name="Layer 1">
    <g>
      <path class="cls-3" d="m195.8,13.22c-2.65-.72-5.47.02-8.08,1.84-1.96-7.22-5.53-12.06-9.63-12.06-3.31,0-6.28,3.16-8.33,8.19-5.45-3.94-11.73-5.25-17.12-2.92-9.51,4.11-12.66,18.01-7.03,31.04,5.63,13.03,17.91,20.26,27.43,16.15,1.67-.72,3.15-1.76,4.41-3.03.21.03.42.04.64.04,1.93,0,3.74-1.07,5.32-2.96.69.44,1.43.78,2.22,1,6.49,1.77,14.02-5.15,16.83-15.45,2.8-10.3-.18-20.08-6.67-21.85Z"/>
      <g>
        <path class="cls-4" d="m173.99,399.82c-86.64-2.08-153.4-54.68-168.68-149.88-7.17-44.64,16.11-111.95,44.09-143.24,32.7-36.57,71.45-61.3,124.59-61.3"/>
        <path class="cls-4" d="m173.99,399.82c86.64-2.08,153.4-54.68,168.68-149.88,7.17-44.64-16.11-111.95-44.09-143.24-32.7-36.57-71.45-61.3-124.59-61.3"/>
      </g>
      <ellipse class="cls-5" cx="221.14" cy="145.22" rx="9.86" ry="17.1" transform="translate(-5.45 281.78) rotate(-64.37)"/>
      <ellipse class="cls-5" cx="126.84" cy="145.22" rx="17.1" ry="9.86" transform="translate(-50.34 69.16) rotate(-25.63)"/>
      <g>
        <ellipse class="cls-2" cx="173.98" cy="165.72" rx="11.45" ry="6.34"/>
        <ellipse class="cls-2" cx="174.02" cy="172.06" rx="11.45" ry="6.34"/>
      </g>
      <g>
        <ellipse class="cls-1" cx="92.93" cy="165.72" rx="19.11" ry="9.62"/>
        <ellipse class="cls-1" cx="255.11" cy="165.72" rx="19.11" ry="9.62"/>
      </g>
    </g>
  </g>
</svg>