<?xml version="1.0" encoding="UTF-8"?>
<svg id="_레이어_2" data-name="레이어 2" xmlns="http://www.w3.org/2000/svg" viewBox="0 0 363.68 256.69">
  <defs>
    <style>
      .cls-1 {
        fill: #f47a35;
      }

      .cls-2 {
        fill: #f26521;
      }

      .cls-3 {
        fill: #221e1f;
      }

      .cls-4 {
        fill: #ed1b23;
        stroke-width: 6px;
      }

      .cls-4, .cls-5 {
        stroke: #2e2310;
        stroke-miterlimit: 10;
      }

      .cls-5 {
        fill: #fff;
        stroke-width: 8px;
      }

      .cls-6 {
        fill: #2f2004;
      }
    </style>
  </defs>
  <g id="Layer_1" data-name="Layer 1">
    <g>
      <path class="cls-4" d="m212.3,13.22c-2.65-.72-5.47.02-8.08,1.84-1.96-7.22-5.53-12.06-9.63-12.06-3.31,0-6.28,3.16-8.33,8.19-5.45-3.94-11.73-5.25-17.12-2.92-9.51,4.11-12.66,18.01-7.03,31.04,5.63,13.03,17.91,20.26,27.43,16.15,1.67-.72,3.15-1.76,4.41-3.03.21.03.42.04.64.04,1.93,0,3.74-1.07,5.32-2.96.69.44,1.43.78,2.22,1,6.49,1.77,14.02-5.15,16.83-15.45,2.8-10.3-.18-20.08-6.67-21.85Z"/>
      <path class="cls-5" d="m189.69,48.16c-53.14,0-91.89,24.73-124.59,61.3-12.97,14.5-24.93,36.75-33.32,60.89-9.7,27.93-14.62,58.4-10.77,82.34h337.36c3.84-23.95-1.07-54.41-10.77-82.34-8.39-24.14-20.35-46.39-33.32-60.89-32.7-36.57-71.45-61.3-124.59-61.3"/>
      <ellipse class="cls-6" cx="236.84" cy="125.68" rx="9.86" ry="17.1" transform="translate(21.08 284.84) rotate(-64.37)"/>
      <ellipse class="cls-6" cx="142.54" cy="125.68" rx="17.1" ry="9.86" transform="translate(-40.34 74.03) rotate(-25.63)"/>
      <g>
        <ellipse class="cls-2" cx="189.67" cy="146.18" rx="11.45" ry="6.34"/>
        <ellipse class="cls-2" cx="189.72" cy="152.52" rx="11.45" ry="6.34"/>
      </g>
      <g>
        <ellipse class="cls-1" cx="108.63" cy="146.18" rx="19.11" ry="9.62"/>
        <ellipse class="cls-1" cx="270.8" cy="146.18" rx="19.11" ry="9.62"/>
      </g>
      <g>
        <path class="cls-3" d="m20.28,143.73l-17.61-8.75c-.75-.37-1.36-.9-1.84-1.58-.48-.68-.75-1.43-.81-2.24-.06-.81.09-1.57.45-2.29l2.72-5.48c.96-1.93,2.05-3.57,3.26-4.92,1.22-1.35,2.54-2.4,3.96-3.15,1.43-.75,2.94-1.21,4.56-1.38s3.31-.05,5.09.37c1.15.29,2.28.71,3.4,1.27,2.41,1.24,4.32,2.91,5.73,5.02,1.41,2.11,2.18,4.44,2.29,6.99.12,2.55-.44,5.07-1.67,7.55l-3.33,6.71c-.54,1.09-1.43,1.82-2.65,2.19-1.22.37-2.41.27-3.57-.31Zm1-9.47l.95-1.91c.59-1.18.87-2.35.83-3.5s-.35-2.19-.97-3.12-1.45-1.67-2.53-2.2c-.43-.21-.95-.4-1.55-.56-1.48-.41-2.9-.28-4.26.41-1.36.69-2.45,1.86-3.27,3.51l-.8,1.61,11.6,5.76Z"/>
        <path class="cls-3" d="m39.14,95.83c1.08.72,1.69,1.46,1.84,2.21.14.75-.14,1.64-.83,2.69l-5.59,8.36c.09,0,.43-.05,1.02-.16.44-.14.81-.32,1.11-.52.3-.2.64-.51,1.03-.94.39-.42.8-.97,1.25-1.64.4-.67.79-1.6,1.18-2.78.32-.89.58-1.5.79-1.81.57-.85,1.27-1.35,2.12-1.52.85-.17,1.65,0,2.39.5.27.18.47.34.59.49.33.39.58.82.74,1.28s.23.98.22,1.55-.13,1.32-.35,2.23c-.32,1.09-.74,2.14-1.25,3.16-.35.72-.78,1.45-1.29,2.2-1.04,1.56-2.23,2.83-3.58,3.82-1.34.99-2.76,1.66-4.25,2.01s-2.98.38-4.47.08c-1.49-.3-2.93-.92-4.31-1.84-1.2-.85-2.2-1.9-2.98-3.14s-1.3-2.56-1.55-3.94-.21-2.81.1-4.28c.31-1.47.92-2.88,1.82-4.23,1.23-1.77,2.72-3.08,4.48-3.93,1.09-.51,2.24-.84,3.44-.98,1.2-.14,2.35-.12,3.45.08,1.1.2,2.06.55,2.88,1.05Zm-8.17,10.77l2.56-3.83c-.13-.09-.25-.15-.35-.19-1.18-.56-2.2-.19-3.07,1.1-.32.89-.12,1.78.6,2.65.1.13.18.21.25.26Z"/>
        <path class="cls-3" d="m34.48,86.25c.41-.49.9-.88,1.46-1.17s1.14-.44,1.74-.47c.6-.03,1.17.07,1.7.3l6.97,2.89-4.12-6.31c-.46-.73-.66-1.57-.59-2.53.07-.96.41-1.8,1.02-2.54.54-.61,1.18-1.03,1.91-1.26.73-.23,1.49-.25,2.29-.06.8.19,1.56.59,2.29,1.2.44.49.76.97.96,1.47l5.76,12.64c1.01,2.12.98,3.83-.09,5.11-.31.38-.71.71-1.18.98-.5.32-1.04.5-1.63.53-.58.04-1.37-.06-2.37-.31l-13.48-3.38c-.56-.12-1.09-.37-1.58-.73-1.1-.92-1.74-1.97-1.92-3.17-.18-1.19.1-2.26.86-3.21Z"/>
        <path class="cls-3" d="m60.53,81.31c-1.71-.32-3.31-.87-4.81-1.65s-2.78-1.73-3.83-2.83c-1.06-1.11-1.92-2.43-2.59-3.94-.67-1.51-1.09-3.14-1.26-4.88-.36-3.83.68-7.3,3.12-10.41.67-.85,1.35-1.61,2.05-2.28,1.02-.97,2.04-1.72,3.06-2.25,1.02-.53,1.98-.86,2.87-.97s1.68-.07,2.38.15c.7.21,1.29.58,1.78,1.09.66.69,1.02,1.45,1.09,2.27.08.67.05,1.23-.09,1.67s-.45.89-.93,1.34c-.39.37-.73.66-1.01.85-.56.37-1.4.78-2.54,1.25-.49.25-1.04.67-1.65,1.25-1.08,1.02-1.69,2.22-1.85,3.6s.22,2.8,1.12,4.26c.21.33.48.67.79,1,.3.31.63.61,1,.88.91.66,1.8,1.11,2.68,1.34.88.23,1.72.22,2.53-.02.81-.24,1.58-.7,2.3-1.39.9-.86,1.76-2.1,2.58-3.72,0-.03.04-.08.08-.16.05-.08.09-.15.12-.2.25-.38.56-.75.93-1.1.89-.85,1.88-1.22,2.97-1.12,1,.12,1.81.51,2.43,1.16.56.59.94,1.38,1.12,2.36.25,1.25-.04,2.76-.86,4.51-.57,1.28-1.52,2.55-2.84,3.8-.67.63-1.42,1.24-2.27,1.83-2.24,1.54-4.67,2.36-7.29,2.46-.99.06-2.05,0-3.2-.16Z"/>
        <path class="cls-3" d="m89.71,63.92c-1.7,1.25-3.55,1.99-5.55,2.21-2,.22-3.91-.06-5.75-.86-1.83-.79-3.36-2.01-4.58-3.65-1.21-1.65-1.93-3.48-2.17-5.49-.24-2.01.04-3.95.84-5.82s2.06-3.43,3.77-4.69c1.22-.89,2.5-1.52,3.84-1.89s2.7-.48,4.08-.34c.84.08,1.64.25,2.42.5.77.25,1.5.58,2.17.97.67.4,1.3.86,1.87,1.39.58.53,1.09,1.1,1.55,1.72.76,1.04,1.34,2.18,1.73,3.43.39,1.25.56,2.54.49,3.87-.07,1.33-.37,2.63-.9,3.9-.81,1.89-2.08,3.47-3.8,4.73Zm-9.12-7.31c.66.89,1.43,1.45,2.32,1.67.89.22,1.67.08,2.35-.42.06-.04.2-.19.41-.43.93-1.04,1-2.26.22-3.68-.21-.37-.36-.62-.46-.75-.46-.62-.98-1.04-1.57-1.27-1.13-.5-2.12-.43-2.97.2-.84.62-1.2,1.54-1.07,2.78.07.66.32,1.3.77,1.91Z"/>
        <path class="cls-3" d="m109.47,51.21c-1.85,1.03-3.77,1.53-5.78,1.5-2.01-.03-3.88-.55-5.59-1.56-1.72-1.02-3.08-2.41-4.09-4.19-1-1.79-1.49-3.69-1.47-5.72.01-2.03.53-3.92,1.56-5.67,1.03-1.75,2.47-3.14,4.32-4.18,1.32-.74,2.67-1.2,4.04-1.39,1.38-.19,2.74-.14,4.09.17.82.18,1.6.45,2.34.8.74.35,1.41.76,2.03,1.24.62.47,1.18,1.01,1.69,1.61s.95,1.23,1.32,1.9c.63,1.13,1.06,2.33,1.29,3.62.23,1.29.24,2.58,0,3.9-.23,1.31-.69,2.57-1.38,3.76-1.04,1.77-2.5,3.18-4.36,4.22Zm-8.14-8.39c.54.97,1.24,1.61,2.09,1.94s1.65.29,2.38-.12c.07-.04.22-.16.46-.37,1.05-.91,1.27-2.12.68-3.62-.16-.39-.28-.66-.36-.8-.37-.67-.84-1.16-1.4-1.46-1.06-.63-2.05-.69-2.97-.18-.91.51-1.38,1.38-1.41,2.62-.02.67.16,1.33.53,1.99Z"/>
        <path class="cls-3" d="m124.65,52.59c-1.11-.52-1.89-1.36-2.35-2.51l-8.69-21.64c-.46-1.16-.46-2.29,0-3.4.47-1.11,1.27-1.89,2.4-2.34l3.86.6-.07-.18c.87-1.64,2.23-2.83,4.06-3.57.93-.37,1.89-.59,2.88-.65.99-.06,2,.05,3.03.34,1.22.31,2.39.91,3.51,1.79,1.12.88,2.1,2.01,2.93,3.37.46.77.8,1.43,1.01,1.97.32.79.54,1.59.66,2.41.38,1.98.3,3.83-.22,5.54-.52,1.71-1.44,3.17-2.76,4.37-.88.77-1.84,1.37-2.86,1.78-1.09.44-2.19.65-3.32.66l-.46.02-.42-.02,2.34,5.84c.47,1.16.47,2.31,0,3.45-.46,1.12-1.21,1.9-2.26,2.32-1.1.44-2.2.4-3.3-.12Zm-.66-20.74c.4.97.98,1.65,1.72,2.03.74.38,1.49.42,2.25.12.79-.32,1.31-.92,1.54-1.8.23-.88.09-1.95-.42-3.22-.39-.66-.86-1.13-1.43-1.41-.57-.28-1.16-.36-1.77-.23-.97.39-1.63.99-1.97,1.79-.35.81-.32,1.71.08,2.71Z"/>
      </g>
    </g>
  </g>
</svg>