<?xml version="1.0" encoding="UTF-8"?>
<svg id="_레이어_2" data-name="레이어 2" xmlns="http://www.w3.org/2000/svg" viewBox="0 0 705.46 321.19">
  <defs>
    <style>
      .cls-1, .cls-2, .cls-3 {
        fill: #fff;
      }

      .cls-1, .cls-3, .cls-4, .cls-5, .cls-6, .cls-7 {
        stroke: #221e1f;
        stroke-miterlimit: 10;
      }

      .cls-1, .cls-4, .cls-6 {
        stroke-width: 7px;
      }

      .cls-3 {
        stroke-width: 5px;
      }

      .cls-8 {
        fill: #221e1f;
      }

      .cls-9, .cls-6 {
        fill: #f15a28;
      }

      .cls-4 {
        fill: #ed1b23;
      }

      .cls-5 {
        fill: none;
        stroke-linecap: round;
      }

      .cls-5, .cls-7 {
        stroke-width: 4px;
      }

      .cls-7 {
        fill: #ffc20c;
      }
    </style>
  </defs>
  <g id="Layer_1" data-name="Layer 1">
    <g>
      <ellipse class="cls-2" cx="568.88" cy="203.67" rx="30.34" ry="44.37"/>
      <g>
        <path class="cls-4" d="m83.5,16.2c-2.08-1.12-4.59-1.04-7.12-.02-.24-6.43-2.3-11.17-5.73-11.96-2.77-.64-5.87,1.43-8.57,5.25-3.8-4.36-8.81-6.67-13.77-5.76-8.77,1.6-14.09,12.63-11.9,24.64,2.19,12.01,11.08,20.44,19.85,18.84,1.54-.28,2.98-.86,4.28-1.68.17.06.35.12.53.16,1.61.37,3.34-.18,5.03-1.45.49.5,1.04.93,1.67,1.27,5.09,2.74,12.74-1.6,17.09-9.68,4.34-8.08,3.74-16.86-1.36-19.59Z"/>
        <g>
          <path class="cls-8" d="m118.6,89.54c2.81,10.71,4.21,22.54,4.21,35.49s-1.1,24.98-3.29,36.08c-2.2,11.11-5.27,21.38-9.22,30.82-3.95,9.44-8.67,17.96-14.16,25.55-5.49,7.59-11.57,14.07-18.24,19.42-13.79,11.06-28.76,16.59-44.91,16.59-2.55,0-4.19-.81-4.94-2.44-.75-1.62-1.12-3.58-1.12-5.86v-11.33c0-5.44-.02-12.05-.07-19.82-.04-7.77-.09-16.42-.13-25.94-.04-9.53-.13-19.4-.26-29.63-.13-10.23-.26-20.54-.4-30.95s-.29-20.35-.46-29.83c-.53-19.67-1.14-35.16-1.84-46.49-.44-5.97,2.19-9.3,7.9-10.01,8.43-1.23,15.36-1.84,20.81-1.84,35.29,0,57.33,16.73,66.11,50.18ZM40.11,241.12c9.92-.35,19.8-4.61,29.63-12.77,18.26-15.19,30.47-37.84,36.61-67.96,2.11-10.36,3.16-22.1,3.16-35.23s-1.6-24.54-4.81-34.24c-3.21-9.7-7.35-17.45-12.45-23.25-9.57-10.89-21.91-16.33-37.01-16.33-6.58,0-11.94.7-16.07,2.11-.7,9.04-1.05,21.73-1.05,38.06,0,19.58.04,34.55.13,44.91.09,10.36.2,20.5.33,30.42.13,9.92.26,19.43.39,28.51s.28,17.23.46,24.43c.26,9.04.48,16.16.66,21.33Z"/>
          <path class="cls-8" d="m156.25,207.67c.17,12.12,2.37,21.38,6.58,27.79,4.56,6.85,11.02,10.27,19.36,10.27,7.64,0,13.21-3.77,16.73-11.33,2.19-4.92,4.92-7.38,8.17-7.38,1.49,0,2.74.48,3.75,1.45,1.01.97,1.47,2.66,1.38,5.07-.09,2.42-.94,5.03-2.57,7.84-1.63,2.81-3.89,5.31-6.78,7.51-6.32,4.92-13.92,7.38-22.78,7.38-9.57,0-17.82-4.08-24.76-12.25-7.29-8.6-10.93-18.83-10.93-30.69s1.03-21.49,3.09-28.91c2.06-7.42,4.81-13.59,8.23-18.5,6.67-9.92,15.01-14.88,25.02-14.88,12.82,0,21.82,5.05,27,15.15,3.6,7.03,5.53,17.34,5.79,30.95.09,3.87-.53,6.45-1.84,7.77-1.32,1.32-4,1.98-8.03,1.98l-47.41.79Zm45.17-11.46c.17-15.28-3.03-25.72-9.61-31.34-2.63-2.37-5.84-3.56-9.61-3.56s-6.89.7-9.35,2.11c-2.46,1.41-4.63,3.29-6.52,5.66-1.89,2.37-3.47,5.07-4.74,8.1-1.27,3.03-2.3,6.12-3.09,9.28-.79,3.34-1.36,6.63-1.71,9.88l18.04.79c11.76,0,20.63-.31,26.6-.92Z"/>
          <path class="cls-8" d="m273.57,249.15c-.97,2.99-3.25,4.48-6.85,4.48s-5.66-1.23-6.45-3.69c-2.37-7.2-4.65-14.35-6.85-21.47-2.2-7.11-4.43-14.09-6.72-20.94-5.18-16.15-10.23-29.5-15.15-40.04-1.14-2.72-1.71-5.16-1.71-7.31s.64-3.88,1.91-5.2c1.27-1.32,2.72-1.98,4.35-1.98s3.31.59,5.07,1.78c1.75,1.18,3.38,4.26,4.87,9.22,1.49,4.96,3.4,11.63,5.73,20.02,2.33,8.39,4.59,16.49,6.78,24.3,3.77,13.7,6.63,23.57,8.56,29.63,1.23-4.48,2.5-8.73,3.82-12.77,1.76-5.62,3.6-11.5,5.53-17.65,4.65-14.92,8.73-30.55,12.25-46.88,1.14-4.92,3.69-7.38,7.64-7.38,1.75,0,3.27.55,4.54,1.65,1.27,1.1,1.91,2.48,1.91,4.15,0,2.46-.88,5.97-2.63,10.54-1.76,4.57-3.86,10.27-6.32,17.12-2.46,6.85-4.87,13.79-7.24,20.81-5.45,16.16-9.79,30.03-13.04,41.62Z"/>
          <path class="cls-8" d="m401.82,198.71c0-2.9.72-5.16,2.17-6.78,1.45-1.62,3.12-2.44,5-2.44s3.56.68,5,2.04c1.45,1.36,2.08,3.45,1.91,6.26-.88,17.74-5.66,32-14.35,42.8-8.34,10.36-18.79,15.54-31.34,15.54-23.71,0-39.03-17.73-45.96-53.21-2.63-13.08-3.95-28.51-3.95-46.29s1.1-33.63,3.29-47.54c2.19-13.91,5.53-26.01,10.01-36.28,9.57-21.95,23.18-32.92,40.83-32.92,13.7,0,23.84,5.4,30.42,16.2,6.93,11.5,10.4,30.29,10.4,56.37,0,2.9-.66,5.07-1.98,6.52-1.32,1.45-2.9,2.17-4.74,2.17-4.04,0-6.06-2.55-6.06-7.64,0-32.48-5.18-51.84-15.54-58.08-3.69-2.19-7.99-3.29-12.91-3.29s-9.33,1.38-13.24,4.15c-3.91,2.77-7.38,6.58-10.4,11.46-3.03,4.87-5.64,10.62-7.84,17.25-2.2,6.63-4,13.76-5.4,21.4-2.81,15.45-4.21,30.71-4.21,45.77s.48,27.13,1.45,36.22c.96,9.09,2.33,16.86,4.08,23.31,1.75,6.45,3.84,11.72,6.25,15.8,2.41,4.08,5.07,7.31,7.97,9.68,4.92,4.13,11.19,6.19,18.83,6.19,8.51,0,15.5-3.47,20.94-10.4,6.41-7.99,9.53-19.4,9.35-34.24Z"/>
          <path class="cls-8" d="m475.29,256c-5,.09-9.68-.94-14.03-3.09s-8.1-5.51-11.26-10.08c-6.94-9.66-10.4-23.4-10.4-41.22,0-15.98,3.73-28.58,11.19-37.8,7.02-8.78,16.33-13.17,27.92-13.17,9.75,0,17.82,4.21,24.23,12.64,6.58,8.96,9.88,21.25,9.88,36.88,0,17.38-3.82,31.26-11.46,41.62-6.85,9.31-15.54,14.05-26.08,14.22Zm12.12-91.53c-2.9-2.11-6.3-3.16-10.21-3.16s-7.46,1.08-10.67,3.23c-3.21,2.15-5.91,5.16-8.1,9.02-4.48,7.73-6.72,18.33-6.72,31.8s2.15,23.42,6.45,29.83c4.3,6.41,10.05,9.61,17.25,9.61,7.9,0,14.22-4.52,18.96-13.56,4.21-8.08,6.32-18,6.32-29.76,0-18.09-4.43-30.42-13.3-37.01Z"/>
          <path class="cls-8" d="m568.38,256c-5,.09-9.68-.94-14.03-3.09s-8.1-5.51-11.26-10.08c-6.94-9.66-10.4-23.4-10.4-41.22,0-15.98,3.73-28.58,11.19-37.8,7.02-8.78,16.33-13.17,27.92-13.17,9.75,0,17.82,4.21,24.23,12.64,6.58,8.96,9.88,21.25,9.88,36.88,0,17.38-3.82,31.26-11.46,41.62-6.85,9.31-15.54,14.05-26.08,14.22Zm12.12-91.53c-2.9-2.11-6.3-3.16-10.21-3.16s-7.46,1.08-10.67,3.23c-3.21,2.15-5.91,5.16-8.1,9.02-4.48,7.73-6.72,18.33-6.72,31.8s2.15,23.42,6.45,29.83c4.3,6.41,10.05,9.61,17.25,9.61,7.9,0,14.22-4.52,18.96-13.56,4.21-8.08,6.32-18,6.32-29.76,0-18.09-4.43-30.42-13.3-37.01Z"/>
          <path class="cls-8" d="m646.33,255.87c-.26,5.97-.4,11.9-.4,17.78s.66,19.36,1.98,40.43c0,3.34-1.8,5.57-5.4,6.72-.97.26-1.91.39-2.83.39s-1.8-.15-2.63-.46c-.83-.31-1.56-.81-2.17-1.51-1.49-1.49-2.11-4-1.84-7.51.88-11.85,1.32-29.41,1.32-52.68,0-41.35-.48-73.14-1.45-95.35-.18-2.9.46-5.22,1.91-6.98,1.45-1.75,3.18-2.63,5.2-2.63s3.67.72,4.94,2.17c1.27,1.45,1.82,3.36,1.65,5.73-.26,3.87-.44,7.24-.53,10.14,3.07-5.62,7.15-10.32,12.25-14.09,6.41-4.83,13.61-7.24,21.6-7.24s14.24,2.99,18.77,8.96c4.52,5.97,6.78,13.65,6.78,23.05s-.97,17.36-2.9,23.9c-1.93,6.54-4.5,12.4-7.7,17.58-3.21,5.18-6.89,9.7-11.06,13.57-4.17,3.86-8.45,7.11-12.84,9.75-8.69,5.18-16.9,7.95-24.63,8.3Zm-.26-60.45c-.26,23.09-.13,39.38.39,48.86,3.42.44,7.38-.35,11.85-2.37,5.71-2.54,10.45-5.35,14.22-8.43,3.77-3.07,7.2-6.85,10.27-11.33,7.02-10.27,10.54-22.52,10.54-36.74,0-7.64-1.58-13.41-4.74-17.32-3.16-3.91-6.91-5.86-11.26-5.86s-8.32,1.08-11.92,3.23c-3.6,2.15-6.76,4.85-9.48,8.1-5.62,6.85-8.91,14.14-9.88,21.86Z"/>
        </g>
        <path class="cls-6" d="m30.36,97.4c2.03-1.25,3.25-2.83,3.25-4.55,0-4.06-6.74-7.35-15.05-7.35s-15.05,3.29-15.05,7.35c0,1.72,1.22,3.3,3.25,4.55-2.03,1.25-3.25,2.83-3.25,4.55,0,4.06,6.74,7.35,15.05,7.35s15.05-3.29,15.05-7.35c0-1.72-1.22-3.3-3.25-4.55Z"/>
        <ellipse class="cls-9" cx="24.55" cy="97.37" rx="8.6" ry="7.24"/>
        <ellipse class="cls-7" cx="476.26" cy="203.04" rx="32.91" ry="47.49"/>
        <path class="cls-1" d="m476.91,254.94c-6.74,0-13.56-1.97-19.69-6.16-10.22-6.98-13.95-16.9-16.25-25.68-2.47-9.43-2.09-23.27-2.07-23.85.03-.89.43-1.7,1.05-2.1.62-.4,1.36-.33,1.93.19,4.43,4.01,9.39,8.42,11.46,10.16l10.36-10.59c.66-.68,1.6-.71,2.28-.07l11.25,10.43,10.73-10.28c.68-.65,1.6-.64,2.27.01l10.53,10.28,10.93-10.02c.54-.5,1.24-.59,1.85-.25.61.34,1.03,1.06,1.13,1.91.08.76,1.97,18.84-3.53,32.17-6.22,15.1-20.05,23.83-34.24,23.83Z"/>
        <path class="cls-5" d="m477.94,168.84c-.36-.45-6.3-8.21-2.95-17.49,2.32-6.41,8.16-11,15.04-11.83"/>
        <ellipse class="cls-3" cx="569.67" cy="201.09" rx="31.79" ry="44.11"/>
        <path class="cls-1" d="m568.79,250.54c-5.77,0-11.61-1.75-16.86-5.48-8.75-6.22-11.94-15.04-13.92-22.86-2.12-8.4-1.79-20.71-1.77-21.23.02-.8.37-1.51.9-1.87.53-.36,1.17-.29,1.65.17,3.8,3.57,8.04,7.5,9.81,9.05l8.87-9.42c.57-.6,1.37-.63,1.96-.06l9.64,9.29,9.19-9.15c.58-.58,1.37-.57,1.95.01l9.02,9.15,9.36-8.92c.46-.44,1.06-.53,1.58-.23.52.3.89.94.97,1.7.07.68,1.69,16.77-3.02,28.64-5.33,13.44-17.17,21.22-29.32,21.22Z"/>
      </g>
    </g>
  </g>
</svg>