<?xml version="1.0" encoding="UTF-8"?>
<svg id="_레이어_2" data-name="레이어 2" xmlns="http://www.w3.org/2000/svg" viewBox="0 0 1594.26 464.94">
  <defs>
    <style>
      .cls-1 {
        fill: #f47a35;
      }

      .cls-2 {
        fill: #2e2310;
      }

      .cls-2, .cls-3, .cls-4, .cls-5, .cls-6 {
        stroke-miterlimit: 10;
      }

      .cls-2, .cls-3, .cls-4, .cls-6 {
        stroke-width: 8px;
      }

      .cls-2, .cls-3, .cls-6 {
        stroke: #2f2004;
      }

      .cls-7 {
        fill: #f15a28;
      }

      .cls-3, .cls-5 {
        fill: none;
      }

      .cls-8 {
        fill: #f1f2f2;
      }

      .cls-4 {
        fill: #ffc20c;
      }

      .cls-4, .cls-5 {
        stroke: #2e2310;
      }

      .cls-9 {
        fill: #d1d3d4;
      }

      .cls-10 {
        fill: #e6e7e8;
      }

      .cls-11 {
        fill: #bcbec0;
      }

      .cls-12 {
        fill: #2f2004;
      }

      .cls-5 {
        stroke-linecap: round;
        stroke-width: 6px;
      }

      .cls-13 {
        fill: #c49a6b;
      }

      .cls-6 {
        fill: #fff;
      }
    </style>
  </defs>
  <g id="Layer_1" data-name="Layer 1">
    <g>
      <g>
        <path class="cls-4" d="m1169.83,394.59c-86.64-2.08-153.4-54.68-168.68-149.88-7.17-44.64,16.11-111.95,44.09-143.24,32.7-36.57,71.45-61.3,124.59-61.3"/>
        <path class="cls-4" d="m1169.83,394.59c86.64-2.08,153.4-54.68,168.68-149.88,7.17-44.64-16.11-111.95-44.09-143.24-32.7-36.57-71.45-61.3-124.59-61.3"/>
      </g>
      <path class="cls-6" d="m1169.6,411.49c-32.31,0-65-7.31-94.4-22.88-48.99-25.95-66.88-62.79-77.93-95.41-11.86-35.06-10-86.46-9.91-88.63.13-3.32,2.07-6.31,5.05-7.79,2.98-1.48,6.53-1.21,9.26.7,21.26,14.9,45.02,31.29,54.94,37.76l49.66-39.34c3.18-2.52,7.66-2.62,10.95-.26l53.96,38.77,51.45-38.19c3.25-2.4,7.68-2.39,10.91.05l50.49,38.19,52.4-37.25c2.59-1.84,5.95-2.2,8.87-.94,2.91,1.25,4.96,3.94,5.41,7.08.4,2.83,9.44,70-16.92,119.56-29.85,56.11-96.13,88.57-164.17,88.57Z"/>
      <ellipse class="cls-12" cx="1178.29" cy="158.4" rx="9.86" ry="17.1" transform="translate(525.76 1152.21) rotate(-64.37)"/>
      <ellipse class="cls-12" cx="1083.98" cy="158.4" rx="17.1" ry="9.86" transform="translate(38.15 484.51) rotate(-25.63)"/>
      <g>
        <ellipse class="cls-7" cx="1131.12" cy="178.9" rx="11.45" ry="6.34"/>
        <ellipse class="cls-7" cx="1131.16" cy="185.24" rx="11.45" ry="6.34"/>
      </g>
      <path class="cls-5" d="m1143.31,96.14c-1.12-1.41-19.7-25.7-9.22-54.72,7.25-20.07,25.52-34.43,47.07-37.02"/>
      <g>
        <ellipse class="cls-1" cx="1050.08" cy="178.9" rx="19.11" ry="9.62"/>
        <ellipse class="cls-1" cx="1212.25" cy="178.9" rx="19.11" ry="9.62"/>
      </g>
      <ellipse class="cls-2" cx="1241.68" cy="169.19" rx="10.31" ry="6.52"/>
      <path class="cls-3" d="m1310.81,124.74c-2.06,3.77-25.63,45.56-60.52,44.44-4.27-.14-9.31-.94-14.89-3.1"/>
      <ellipse class="cls-2" cx="1022.08" cy="133.95" rx="14.97" ry="35.15"/>
      <ellipse class="cls-2" cx="1317.63" cy="130.67" rx="14.97" ry="35.15"/>
      <path class="cls-3" d="m1021.93,99.81c19.79-52.23,69.95-96.68,147.88-95.8"/>
      <path class="cls-3" d="m1314.93,96.53c-30.79-63.37-77.83-92.54-145.12-92.51"/>
    </g>
    <rect class="cls-13" y="251.81" width="1594.26" height="213.14"/>
    <path class="cls-11" d="m1080.81,300.82l-183.9-55.06c-9.51-2.85-20.13.11-23.73,6.6l-44.96,81.08c-3.6,6.49,1.19,14.06,10.7,16.91l183.9,55.06c9.51,2.85,20.13-.11,23.73-6.6l44.96-81.08c3.6-6.49-1.19-14.06-10.7-16.91Z"/>
    <path class="cls-10" d="m1079.33,298.86l-183.53-53.82c-9.49-2.78-20.16.34-23.84,6.97l-45.95,82.87c-3.68,6.63,1.03,14.27,10.52,17.05l183.53,53.82c9.49,2.78,20.16-.34,23.84-6.97l45.95-82.87c3.68-6.63-1.03-14.27-10.52-17.05Z"/>
    <path class="cls-9" d="m1027.59,405.26l-196.44-49.68c-10.16-2.57-18.54-12.47-18.71-22.12l-2.24-120.49c-.18-9.65,7.91-15.38,18.06-12.81l196.44,49.68c10.16,2.57,18.54,12.47,18.71,22.12l2.24,120.49c.18,9.65-7.91,15.38-18.06,12.81Z"/>
    <path class="cls-11" d="m1023.71,407.17l-198.66-49.09c-10.27-2.54-18.75-12.36-18.94-21.93l-2.33-119.62c-.19-9.58,7.99-15.28,18.26-12.74l198.66,49.09c10.27,2.54,18.75,12.36,18.94,21.93l2.33,119.62c.19,9.58-7.99,15.28-18.26,12.74Z"/>
    <ellipse class="cls-8" cx="912.75" cy="302.71" rx="20.77" ry="18.21" transform="translate(535.77 1187.37) rotate(-85.27)"/>
  </g>
</svg>